<?xml version="1.0" encoding="utf-8" standalone="no"?>
<!DOCTYPE svg PUBLIC "-//W3C//DTD SVG 1.1//EN"
  "http://www.w3.org/Graphics/SVG/1.1/DTD/svg11.dtd">
<svg xmlns:xlink="http://www.w3.org/1999/xlink" width="576pt" height="288pt" viewBox="0 0 576 288" xmlns="http://www.w3.org/2000/svg" version="1.1">
 <metadata>
  <rdf:RDF xmlns:dc="http://purl.org/dc/elements/1.1/" xmlns:cc="http://creativecommons.org/ns#" xmlns:rdf="http://www.w3.org/1999/02/22-rdf-syntax-ns#">
   <cc:Work>
    <dc:type rdf:resource="http://purl.org/dc/dcmitype/StillImage"/>
    <dc:format>image/svg+xml</dc:format>
   </cc:Work>
  </rdf:RDF>
 </metadata>
 <defs>
  <style type="text/css">*{stroke-linejoin: round; stroke-linecap: butt}</style>
 </defs>
 <g id="figure_1">
  <g id="patch_1">
   <path d="M 0 288 
L 576 288 
L 576 0 
L 0 0 
z
" style="fill: #fcfcfb; stroke: #e1e0d9; stroke-width: 1.5; stroke-linejoin: miter"/>
  </g>
  <g id="axes_1">
   <g id="patch_2">
    <path d="M 51.84 253.44 
L 495.36 253.44 
L 495.36 57.6 
L 51.84 57.6 
z
" style="fill: #fcfcfb"/>
   </g>
   <g id="matplotlib.axis_1">
    <g id="xtick_1">
     <g id="line2d_1">
      <defs>
       <path id="m17d572b8bd" d="M 0 0 
L 0 4 
" style="stroke: #c3c2b7; stroke-width: 0.8"/>
      </defs>
      <g>
       <use xlink:href="#m17d572b8bd" x="86.456195" y="253.44" style="fill: #c3c2b7; stroke: #c3c2b7; stroke-width: 0.8"/>
      </g>
     </g>
     <g id="text_1">
      <!-- Apr -->
      <g style="fill: #52514e" transform="translate(77.806195 271.037656) scale(0.1 -0.1)">
       <defs>
        <path id="DejaVuSans-24" d="M 2188 4044 
L 1331 1722 
L 3047 1722 
L 2188 4044 
z
M 1831 4666 
L 2547 4666 
L 4325 0 
L 3669 0 
L 3244 1197 
L 1141 1197 
L 716 0 
L 50 0 
L 1831 4666 
z
" transform="scale(0.015625)"/>
        <path id="DejaVuSans-53" d="M 1159 525 
L 1159 -1331 
L 581 -1331 
L 581 3500 
L 1159 3500 
L 1159 2969 
Q 1341 3281 1617 3432 
Q 1894 3584 2278 3584 
Q 2916 3584 3314 3078 
Q 3713 2572 3713 1747 
Q 3713 922 3314 415 
Q 2916 -91 2278 -91 
Q 1894 -91 1617 61 
Q 1341 213 1159 525 
z
M 3116 1747 
Q 3116 2381 2855 2742 
Q 2594 3103 2138 3103 
Q 1681 3103 1420 2742 
Q 1159 2381 1159 1747 
Q 1159 1113 1420 752 
Q 1681 391 2138 391 
Q 2594 391 2855 752 
Q 3116 1113 3116 1747 
z
" transform="scale(0.015625)"/>
        <path id="DejaVuSans-55" d="M 2631 2963 
Q 2534 3019 2420 3045 
Q 2306 3072 2169 3072 
Q 1681 3072 1420 2755 
Q 1159 2438 1159 1844 
L 1159 0 
L 581 0 
L 581 3500 
L 1159 3500 
L 1159 2956 
Q 1341 3275 1631 3429 
Q 1922 3584 2338 3584 
Q 2397 3584 2469 3576 
Q 2541 3569 2628 3553 
L 2631 2963 
z
" transform="scale(0.015625)"/>
       </defs>
       <use xlink:href="#DejaVuSans-24"/>
       <use xlink:href="#DejaVuSans-53" transform="translate(68.40625 0)"/>
       <use xlink:href="#DejaVuSans-55" transform="translate(131.890625 0)"/>
      </g>
     </g>
    </g>
    <g id="xtick_2">
     <g id="line2d_2">
      <g>
       <use xlink:href="#m17d572b8bd" x="151.361561" y="253.44" style="fill: #c3c2b7; stroke: #c3c2b7; stroke-width: 0.8"/>
      </g>
     </g>
     <g id="text_2">
      <!-- May -->
      <g style="fill: #52514e" transform="translate(141.024061 271.037656) scale(0.1 -0.1)">
       <defs>
        <path id="DejaVuSans-30" d="M 628 4666 
L 1569 4666 
L 2759 1491 
L 3956 4666 
L 4897 4666 
L 4897 0 
L 4281 0 
L 4281 4097 
L 3078 897 
L 2444 897 
L 1241 4097 
L 1241 0 
L 628 0 
L 628 4666 
z
" transform="scale(0.015625)"/>
        <path id="DejaVuSans-44" d="M 2194 1759 
Q 1497 1759 1228 1600 
Q 959 1441 959 1056 
Q 959 750 1161 570 
Q 1363 391 1709 391 
Q 2188 391 2477 730 
Q 2766 1069 2766 1631 
L 2766 1759 
L 2194 1759 
z
M 3341 1997 
L 3341 0 
L 2766 0 
L 2766 531 
Q 2569 213 2275 61 
Q 1981 -91 1556 -91 
Q 1019 -91 701 211 
Q 384 513 384 1019 
Q 384 1609 779 1909 
Q 1175 2209 1959 2209 
L 2766 2209 
L 2766 2266 
Q 2766 2663 2505 2880 
Q 2244 3097 1772 3097 
Q 1472 3097 1187 3025 
Q 903 2953 641 2809 
L 641 3341 
Q 956 3463 1253 3523 
Q 1550 3584 1831 3584 
Q 2591 3584 2966 3190 
Q 3341 2797 3341 1997 
z
" transform="scale(0.015625)"/>
        <path id="DejaVuSans-5c" d="M 2059 -325 
Q 1816 -950 1584 -1140 
Q 1353 -1331 966 -1331 
L 506 -1331 
L 506 -850 
L 844 -850 
Q 1081 -850 1212 -737 
Q 1344 -625 1503 -206 
L 1606 56 
L 191 3500 
L 800 3500 
L 1894 763 
L 2988 3500 
L 3597 3500 
L 2059 -325 
z
" transform="scale(0.015625)"/>
       </defs>
       <use xlink:href="#DejaVuSans-30"/>
       <use xlink:href="#DejaVuSans-44" transform="translate(86.28125 0)"/>
       <use xlink:href="#DejaVuSans-5c" transform="translate(147.5625 0)"/>
      </g>
     </g>
    </g>
    <g id="xtick_3">
     <g id="line2d_3">
      <g>
       <use xlink:href="#m17d572b8bd" x="218.430439" y="253.44" style="fill: #c3c2b7; stroke: #c3c2b7; stroke-width: 0.8"/>
      </g>
     </g>
     <g id="text_3">
      <!-- Jun -->
      <g style="fill: #52514e" transform="translate(210.617939 271.037656) scale(0.1 -0.1)">
       <defs>
        <path id="DejaVuSans-2d" d="M 628 4666 
L 1259 4666 
L 1259 325 
Q 1259 -519 939 -900 
Q 619 -1281 -91 -1281 
L -331 -1281 
L -331 -750 
L -134 -750 
Q 284 -750 456 -515 
Q 628 -281 628 325 
L 628 4666 
z
" transform="scale(0.015625)"/>
        <path id="DejaVuSans-58" d="M 544 1381 
L 544 3500 
L 1119 3500 
L 1119 1403 
Q 1119 906 1312 657 
Q 1506 409 1894 409 
Q 2359 409 2629 706 
Q 2900 1003 2900 1516 
L 2900 3500 
L 3475 3500 
L 3475 0 
L 2900 0 
L 2900 538 
Q 2691 219 2414 64 
Q 2138 -91 1772 -91 
Q 1169 -91 856 284 
Q 544 659 544 1381 
z
M 1991 3584 
L 1991 3584 
z
" transform="scale(0.015625)"/>
        <path id="DejaVuSans-51" d="M 3513 2113 
L 3513 0 
L 2938 0 
L 2938 2094 
Q 2938 2591 2744 2837 
Q 2550 3084 2163 3084 
Q 1697 3084 1428 2787 
Q 1159 2491 1159 1978 
L 1159 0 
L 581 0 
L 581 3500 
L 1159 3500 
L 1159 2956 
Q 1366 3272 1645 3428 
Q 1925 3584 2291 3584 
Q 2894 3584 3203 3211 
Q 3513 2838 3513 2113 
z
" transform="scale(0.015625)"/>
       </defs>
       <use xlink:href="#DejaVuSans-2d"/>
       <use xlink:href="#DejaVuSans-58" transform="translate(29.5 0)"/>
       <use xlink:href="#DejaVuSans-51" transform="translate(92.875 0)"/>
      </g>
     </g>
    </g>
    <g id="xtick_4">
     <g id="line2d_4">
      <g>
       <use xlink:href="#m17d572b8bd" x="283.335805" y="253.44" style="fill: #c3c2b7; stroke: #c3c2b7; stroke-width: 0.8"/>
      </g>
     </g>
     <g id="text_4">
      <!-- Jul -->
      <g style="fill: #52514e" transform="translate(277.302992 271.038437) scale(0.1 -0.1)">
       <defs>
        <path id="DejaVuSans-4f" d="M 603 4863 
L 1178 4863 
L 1178 0 
L 603 0 
L 603 4863 
z
" transform="scale(0.015625)"/>
       </defs>
       <use xlink:href="#DejaVuSans-2d"/>
       <use xlink:href="#DejaVuSans-58" transform="translate(29.5 0)"/>
       <use xlink:href="#DejaVuSans-4f" transform="translate(92.875 0)"/>
      </g>
     </g>
    </g>
    <g id="xtick_5">
     <g id="line2d_5">
      <g>
       <use xlink:href="#m17d572b8bd" x="350.404683" y="253.44" style="fill: #c3c2b7; stroke: #c3c2b7; stroke-width: 0.8"/>
      </g>
     </g>
     <g id="text_5">
      <!-- Aug -->
      <g style="fill: #52514e" transform="translate(340.641402 271.037656) scale(0.1 -0.1)">
       <defs>
        <path id="DejaVuSans-4a" d="M 2906 1791 
Q 2906 2416 2648 2759 
Q 2391 3103 1925 3103 
Q 1463 3103 1205 2759 
Q 947 2416 947 1791 
Q 947 1169 1205 825 
Q 1463 481 1925 481 
Q 2391 481 2648 825 
Q 2906 1169 2906 1791 
z
M 3481 434 
Q 3481 -459 3084 -895 
Q 2688 -1331 1869 -1331 
Q 1566 -1331 1297 -1286 
Q 1028 -1241 775 -1147 
L 775 -588 
Q 1028 -725 1275 -790 
Q 1522 -856 1778 -856 
Q 2344 -856 2625 -561 
Q 2906 -266 2906 331 
L 2906 616 
Q 2728 306 2450 153 
Q 2172 0 1784 0 
Q 1141 0 747 490 
Q 353 981 353 1791 
Q 353 2603 747 3093 
Q 1141 3584 1784 3584 
Q 2172 3584 2450 3431 
Q 2728 3278 2906 2969 
L 2906 3500 
L 3481 3500 
L 3481 434 
z
" transform="scale(0.015625)"/>
       </defs>
       <use xlink:href="#DejaVuSans-24"/>
       <use xlink:href="#DejaVuSans-58" transform="translate(68.40625 0)"/>
       <use xlink:href="#DejaVuSans-4a" transform="translate(131.78125 0)"/>
      </g>
     </g>
    </g>
    <g id="xtick_6">
     <g id="line2d_6">
      <g>
       <use xlink:href="#m17d572b8bd" x="417.473561" y="253.44" style="fill: #c3c2b7; stroke: #c3c2b7; stroke-width: 0.8"/>
      </g>
     </g>
     <g id="text_6">
      <!-- Sep -->
      <g style="fill: #52514e" transform="translate(408.048561 271.037656) scale(0.1 -0.1)">
       <defs>
        <path id="DejaVuSans-36" d="M 3425 4513 
L 3425 3897 
Q 3066 4069 2747 4153 
Q 2428 4238 2131 4238 
Q 1616 4238 1336 4038 
Q 1056 3838 1056 3469 
Q 1056 3159 1242 3001 
Q 1428 2844 1947 2747 
L 2328 2669 
Q 3034 2534 3370 2195 
Q 3706 1856 3706 1288 
Q 3706 609 3251 259 
Q 2797 -91 1919 -91 
Q 1588 -91 1214 -16 
Q 841 59 441 206 
L 441 856 
Q 825 641 1194 531 
Q 1563 422 1919 422 
Q 2459 422 2753 634 
Q 3047 847 3047 1241 
Q 3047 1584 2836 1778 
Q 2625 1972 2144 2069 
L 1759 2144 
Q 1053 2284 737 2584 
Q 422 2884 422 3419 
Q 422 4038 858 4394 
Q 1294 4750 2059 4750 
Q 2388 4750 2728 4690 
Q 3069 4631 3425 4513 
z
" transform="scale(0.015625)"/>
        <path id="DejaVuSans-48" d="M 3597 1894 
L 3597 1613 
L 953 1613 
Q 991 1019 1311 708 
Q 1631 397 2203 397 
Q 2534 397 2845 478 
Q 3156 559 3463 722 
L 3463 178 
Q 3153 47 2828 -22 
Q 2503 -91 2169 -91 
Q 1331 -91 842 396 
Q 353 884 353 1716 
Q 353 2575 817 3079 
Q 1281 3584 2069 3584 
Q 2775 3584 3186 3129 
Q 3597 2675 3597 1894 
z
M 3022 2063 
Q 3016 2534 2758 2815 
Q 2500 3097 2075 3097 
Q 1594 3097 1305 2825 
Q 1016 2553 972 2059 
L 3022 2063 
z
" transform="scale(0.015625)"/>
       </defs>
       <use xlink:href="#DejaVuSans-36"/>
       <use xlink:href="#DejaVuSans-48" transform="translate(63.484375 0)"/>
       <use xlink:href="#DejaVuSans-53" transform="translate(125.015625 0)"/>
      </g>
     </g>
    </g>
    <g id="xtick_7">
     <g id="line2d_7">
      <g>
       <use xlink:href="#m17d572b8bd" x="482.378927" y="253.44" style="fill: #c3c2b7; stroke: #c3c2b7; stroke-width: 0.8"/>
      </g>
     </g>
     <g id="text_7">
      <!-- Oct -->
      <g style="fill: #52514e" transform="translate(473.733614 271.037656) scale(0.1 -0.1)">
       <defs>
        <path id="DejaVuSans-32" d="M 2522 4238 
Q 1834 4238 1429 3725 
Q 1025 3213 1025 2328 
Q 1025 1447 1429 934 
Q 1834 422 2522 422 
Q 3209 422 3611 934 
Q 4013 1447 4013 2328 
Q 4013 3213 3611 3725 
Q 3209 4238 2522 4238 
z
M 2522 4750 
Q 3503 4750 4090 4092 
Q 4678 3434 4678 2328 
Q 4678 1225 4090 567 
Q 3503 -91 2522 -91 
Q 1538 -91 948 565 
Q 359 1222 359 2328 
Q 359 3434 948 4092 
Q 1538 4750 2522 4750 
z
" transform="scale(0.015625)"/>
        <path id="DejaVuSans-46" d="M 3122 3366 
L 3122 2828 
Q 2878 2963 2633 3030 
Q 2388 3097 2138 3097 
Q 1578 3097 1268 2742 
Q 959 2388 959 1747 
Q 959 1106 1268 751 
Q 1578 397 2138 397 
Q 2388 397 2633 464 
Q 2878 531 3122 666 
L 3122 134 
Q 2881 22 2623 -34 
Q 2366 -91 2075 -91 
Q 1284 -91 818 406 
Q 353 903 353 1747 
Q 353 2603 823 3093 
Q 1294 3584 2113 3584 
Q 2378 3584 2631 3529 
Q 2884 3475 3122 3366 
z
" transform="scale(0.015625)"/>
        <path id="DejaVuSans-57" d="M 1172 4494 
L 1172 3500 
L 2356 3500 
L 2356 3053 
L 1172 3053 
L 1172 1153 
Q 1172 725 1289 603 
Q 1406 481 1766 481 
L 2356 481 
L 2356 0 
L 1766 0 
Q 1100 0 847 248 
Q 594 497 594 1153 
L 594 3053 
L 172 3053 
L 172 3500 
L 594 3500 
L 594 4494 
L 1172 4494 
z
" transform="scale(0.015625)"/>
       </defs>
       <use xlink:href="#DejaVuSans-32"/>
       <use xlink:href="#DejaVuSans-46" transform="translate(78.71875 0)"/>
       <use xlink:href="#DejaVuSans-57" transform="translate(133.703125 0)"/>
      </g>
     </g>
    </g>
   </g>
   <g id="matplotlib.axis_2">
    <g id="ytick_1">
     <g id="line2d_8">
      <path d="M 51.84 253.44 
L 495.36 253.44 
" clip-path="url(#p60cb94f407)" style="fill: none; stroke: #e1e0d9; stroke-width: 0.75; stroke-linecap: round"/>
     </g>
     <g id="line2d_9"/>
     <g id="text_8">
      <!-- 0 -->
      <g style="fill: #52514e" transform="translate(39.4775 257.238828) scale(0.1 -0.1)">
       <defs>
        <path id="DejaVuSans-13" d="M 2034 4250 
Q 1547 4250 1301 3770 
Q 1056 3291 1056 2328 
Q 1056 1369 1301 889 
Q 1547 409 2034 409 
Q 2525 409 2770 889 
Q 3016 1369 3016 2328 
Q 3016 3291 2770 3770 
Q 2525 4250 2034 4250 
z
M 2034 4750 
Q 2819 4750 3233 4129 
Q 3647 3509 3647 2328 
Q 3647 1150 3233 529 
Q 2819 -91 2034 -91 
Q 1250 -91 836 529 
Q 422 1150 422 2328 
Q 422 3509 836 4129 
Q 1250 4750 2034 4750 
z
" transform="scale(0.015625)"/>
       </defs>
       <use xlink:href="#DejaVuSans-13"/>
      </g>
     </g>
    </g>
    <g id="ytick_2">
     <g id="line2d_10">
      <path d="M 51.84 212.262973 
L 495.36 212.262973 
" clip-path="url(#p60cb94f407)" style="fill: none; stroke: #e1e0d9; stroke-width: 0.75; stroke-linecap: round"/>
     </g>
     <g id="line2d_11"/>
     <g id="text_9">
      <!-- 800 -->
      <g style="fill: #52514e" transform="translate(26.7525 216.061801) scale(0.1 -0.1)">
       <defs>
        <path id="DejaVuSans-1b" d="M 2034 2216 
Q 1584 2216 1326 1975 
Q 1069 1734 1069 1313 
Q 1069 891 1326 650 
Q 1584 409 2034 409 
Q 2484 409 2743 651 
Q 3003 894 3003 1313 
Q 3003 1734 2745 1975 
Q 2488 2216 2034 2216 
z
M 1403 2484 
Q 997 2584 770 2862 
Q 544 3141 544 3541 
Q 544 4100 942 4425 
Q 1341 4750 2034 4750 
Q 2731 4750 3128 4425 
Q 3525 4100 3525 3541 
Q 3525 3141 3298 2862 
Q 3072 2584 2669 2484 
Q 3125 2378 3379 2068 
Q 3634 1759 3634 1313 
Q 3634 634 3220 271 
Q 2806 -91 2034 -91 
Q 1263 -91 848 271 
Q 434 634 434 1313 
Q 434 1759 690 2068 
Q 947 2378 1403 2484 
z
M 1172 3481 
Q 1172 3119 1398 2916 
Q 1625 2713 2034 2713 
Q 2441 2713 2670 2916 
Q 2900 3119 2900 3481 
Q 2900 3844 2670 4047 
Q 2441 4250 2034 4250 
Q 1625 4250 1398 4047 
Q 1172 3844 1172 3481 
z
" transform="scale(0.015625)"/>
       </defs>
       <use xlink:href="#DejaVuSans-1b"/>
       <use xlink:href="#DejaVuSans-13" transform="translate(63.625 0)"/>
       <use xlink:href="#DejaVuSans-13" transform="translate(127.25 0)"/>
      </g>
     </g>
    </g>
    <g id="ytick_3">
     <g id="line2d_12">
      <path d="M 51.84 171.085946 
L 495.36 171.085946 
" clip-path="url(#p60cb94f407)" style="fill: none; stroke: #e1e0d9; stroke-width: 0.75; stroke-linecap: round"/>
     </g>
     <g id="line2d_13"/>
     <g id="text_10">
      <!-- 1,600 -->
      <g style="fill: #52514e" transform="translate(17.211875 174.884774) scale(0.1 -0.1)">
       <defs>
        <path id="DejaVuSans-14" d="M 794 531 
L 1825 531 
L 1825 4091 
L 703 3866 
L 703 4441 
L 1819 4666 
L 2450 4666 
L 2450 531 
L 3481 531 
L 3481 0 
L 794 0 
L 794 531 
z
" transform="scale(0.015625)"/>
        <path id="DejaVuSans-f" d="M 750 794 
L 1409 794 
L 1409 256 
L 897 -744 
L 494 -744 
L 750 256 
L 750 794 
z
" transform="scale(0.015625)"/>
        <path id="DejaVuSans-19" d="M 2113 2584 
Q 1688 2584 1439 2293 
Q 1191 2003 1191 1497 
Q 1191 994 1439 701 
Q 1688 409 2113 409 
Q 2538 409 2786 701 
Q 3034 994 3034 1497 
Q 3034 2003 2786 2293 
Q 2538 2584 2113 2584 
z
M 3366 4563 
L 3366 3988 
Q 3128 4100 2886 4159 
Q 2644 4219 2406 4219 
Q 1781 4219 1451 3797 
Q 1122 3375 1075 2522 
Q 1259 2794 1537 2939 
Q 1816 3084 2150 3084 
Q 2853 3084 3261 2657 
Q 3669 2231 3669 1497 
Q 3669 778 3244 343 
Q 2819 -91 2113 -91 
Q 1303 -91 875 529 
Q 447 1150 447 2328 
Q 447 3434 972 4092 
Q 1497 4750 2381 4750 
Q 2619 4750 2861 4703 
Q 3103 4656 3366 4563 
z
" transform="scale(0.015625)"/>
       </defs>
       <use xlink:href="#DejaVuSans-14"/>
       <use xlink:href="#DejaVuSans-f" transform="translate(63.625 0)"/>
       <use xlink:href="#DejaVuSans-19" transform="translate(95.40625 0)"/>
       <use xlink:href="#DejaVuSans-13" transform="translate(159.03125 0)"/>
       <use xlink:href="#DejaVuSans-13" transform="translate(222.65625 0)"/>
      </g>
     </g>
    </g>
    <g id="ytick_4">
     <g id="line2d_14">
      <path d="M 51.84 129.908919 
L 495.36 129.908919 
" clip-path="url(#p60cb94f407)" style="fill: none; stroke: #e1e0d9; stroke-width: 0.75; stroke-linecap: round"/>
     </g>
     <g id="line2d_15"/>
     <g id="text_11">
      <!-- 2,400 -->
      <g style="fill: #52514e" transform="translate(17.211875 133.707747) scale(0.1 -0.1)">
       <defs>
        <path id="DejaVuSans-15" d="M 1228 531 
L 3431 531 
L 3431 0 
L 469 0 
L 469 531 
Q 828 903 1448 1529 
Q 2069 2156 2228 2338 
Q 2531 2678 2651 2914 
Q 2772 3150 2772 3378 
Q 2772 3750 2511 3984 
Q 2250 4219 1831 4219 
Q 1534 4219 1204 4116 
Q 875 4013 500 3803 
L 500 4441 
Q 881 4594 1212 4672 
Q 1544 4750 1819 4750 
Q 2544 4750 2975 4387 
Q 3406 4025 3406 3419 
Q 3406 3131 3298 2873 
Q 3191 2616 2906 2266 
Q 2828 2175 2409 1742 
Q 1991 1309 1228 531 
z
" transform="scale(0.015625)"/>
        <path id="DejaVuSans-17" d="M 2419 4116 
L 825 1625 
L 2419 1625 
L 2419 4116 
z
M 2253 4666 
L 3047 4666 
L 3047 1625 
L 3713 1625 
L 3713 1100 
L 3047 1100 
L 3047 0 
L 2419 0 
L 2419 1100 
L 313 1100 
L 313 1709 
L 2253 4666 
z
" transform="scale(0.015625)"/>
       </defs>
       <use xlink:href="#DejaVuSans-15"/>
       <use xlink:href="#DejaVuSans-f" transform="translate(63.625 0)"/>
       <use xlink:href="#DejaVuSans-17" transform="translate(95.40625 0)"/>
       <use xlink:href="#DejaVuSans-13" transform="translate(159.03125 0)"/>
       <use xlink:href="#DejaVuSans-13" transform="translate(222.65625 0)"/>
      </g>
     </g>
    </g>
    <g id="ytick_5">
     <g id="line2d_16">
      <path d="M 51.84 88.731891 
L 495.36 88.731891 
" clip-path="url(#p60cb94f407)" style="fill: none; stroke: #e1e0d9; stroke-width: 0.75; stroke-linecap: round"/>
     </g>
     <g id="line2d_17"/>
     <g id="text_12">
      <!-- 3,200 -->
      <g style="fill: #52514e" transform="translate(17.211875 92.53072) scale(0.1 -0.1)">
       <defs>
        <path id="DejaVuSans-16" d="M 2597 2516 
Q 3050 2419 3304 2112 
Q 3559 1806 3559 1356 
Q 3559 666 3084 287 
Q 2609 -91 1734 -91 
Q 1441 -91 1130 -33 
Q 819 25 488 141 
L 488 750 
Q 750 597 1062 519 
Q 1375 441 1716 441 
Q 2309 441 2620 675 
Q 2931 909 2931 1356 
Q 2931 1769 2642 2001 
Q 2353 2234 1838 2234 
L 1294 2234 
L 1294 2753 
L 1863 2753 
Q 2328 2753 2575 2939 
Q 2822 3125 2822 3475 
Q 2822 3834 2567 4026 
Q 2313 4219 1838 4219 
Q 1578 4219 1281 4162 
Q 984 4106 628 3988 
L 628 4550 
Q 988 4650 1302 4700 
Q 1616 4750 1894 4750 
Q 2613 4750 3031 4423 
Q 3450 4097 3450 3541 
Q 3450 3153 3228 2886 
Q 3006 2619 2597 2516 
z
" transform="scale(0.015625)"/>
       </defs>
       <use xlink:href="#DejaVuSans-16"/>
       <use xlink:href="#DejaVuSans-f" transform="translate(63.625 0)"/>
       <use xlink:href="#DejaVuSans-15" transform="translate(95.40625 0)"/>
       <use xlink:href="#DejaVuSans-13" transform="translate(159.03125 0)"/>
       <use xlink:href="#DejaVuSans-13" transform="translate(222.65625 0)"/>
      </g>
     </g>
    </g>
   </g>
   <g id="patch_3">
    <path d="M 53.138107 253.44 
L 54.868917 253.44 
L 54.868917 246.491377 
L 53.138107 246.491377 
z
" clip-path="url(#p60cb94f407)" style="fill: #9ec5f4"/>
   </g>
   <g id="patch_4">
    <path d="M 55.30162 253.44 
L 57.032429 253.44 
L 57.032429 183.439054 
L 55.30162 183.439054 
z
" clip-path="url(#p60cb94f407)" style="fill: #9ec5f4"/>
   </g>
   <g id="patch_5">
    <path d="M 57.465132 253.44 
L 59.195941 253.44 
L 59.195941 202.740785 
L 57.465132 202.740785 
z
" clip-path="url(#p60cb94f407)" style="fill: #9ec5f4"/>
   </g>
   <g id="patch_6">
    <path d="M 59.628644 253.44 
L 61.359454 253.44 
L 61.359454 198.726025 
L 59.628644 198.726025 
z
" clip-path="url(#p60cb94f407)" style="fill: #9ec5f4"/>
   </g>
   <g id="patch_7">
    <path d="M 61.792156 253.44 
L 63.522966 253.44 
L 63.522966 198.623083 
L 61.792156 198.623083 
z
" clip-path="url(#p60cb94f407)" style="fill: #9ec5f4"/>
   </g>
   <g id="patch_8">
    <path d="M 63.955668 253.44 
L 65.686478 253.44 
L 65.686478 228.527899 
L 63.955668 228.527899 
z
" clip-path="url(#p60cb94f407)" style="fill: #9ec5f4"/>
   </g>
   <g id="patch_9">
    <path d="M 66.11918 253.44 
L 67.84999 253.44 
L 67.84999 200.476049 
L 66.11918 200.476049 
z
" clip-path="url(#p60cb94f407)" style="fill: #9ec5f4"/>
   </g>
   <g id="patch_10">
    <path d="M 68.282693 253.44 
L 70.013502 253.44 
L 70.013502 122.908824 
L 68.282693 122.908824 
z
" clip-path="url(#p60cb94f407)" style="fill: #9ec5f4"/>
   </g>
   <g id="patch_11">
    <path d="M 70.446205 253.44 
L 72.177015 253.44 
L 72.177015 172.0639 
L 70.446205 172.0639 
z
" clip-path="url(#p60cb94f407)" style="fill: #9ec5f4"/>
   </g>
   <g id="patch_12">
    <path d="M 72.609717 253.44 
L 74.340527 253.44 
L 74.340527 225.38815 
L 72.609717 225.38815 
z
" clip-path="url(#p60cb94f407)" style="fill: #9ec5f4"/>
   </g>
   <g id="patch_13">
    <path d="M 74.773229 253.44 
L 76.504039 253.44 
L 76.504039 220.086608 
L 74.773229 220.086608 
z
" clip-path="url(#p60cb94f407)" style="fill: #9ec5f4"/>
   </g>
   <g id="patch_14">
    <path d="M 76.936741 253.44 
L 78.667551 253.44 
L 78.667551 237.895672 
L 76.936741 237.895672 
z
" clip-path="url(#p60cb94f407)" style="fill: #9ec5f4"/>
   </g>
   <g id="patch_15">
    <path d="M 79.100254 253.44 
L 80.831063 253.44 
L 80.831063 234.652981 
L 79.100254 234.652981 
z
" clip-path="url(#p60cb94f407)" style="fill: #9ec5f4"/>
   </g>
   <g id="patch_16">
    <path d="M 81.263766 253.44 
L 82.994576 253.44 
L 82.994576 200.990762 
L 81.263766 200.990762 
z
" clip-path="url(#p60cb94f407)" style="fill: #9ec5f4"/>
   </g>
   <g id="patch_17">
    <path d="M 83.427278 253.44 
L 85.158088 253.44 
L 85.158088 204.696694 
L 83.427278 204.696694 
z
" clip-path="url(#p60cb94f407)" style="fill: #9ec5f4"/>
   </g>
   <g id="patch_18">
    <path d="M 85.59079 253.44 
L 87.3216 253.44 
L 87.3216 236.917718 
L 85.59079 236.917718 
z
" clip-path="url(#p60cb94f407)" style="fill: #9ec5f4"/>
   </g>
   <g id="patch_19">
    <path d="M 87.754302 253.44 
L 89.485112 253.44 
L 89.485112 226.726404 
L 87.754302 226.726404 
z
" clip-path="url(#p60cb94f407)" style="fill: #9ec5f4"/>
   </g>
   <g id="patch_20">
    <path d="M 89.917815 253.44 
L 91.648624 253.44 
L 91.648624 233.0059 
L 89.917815 233.0059 
z
" clip-path="url(#p60cb94f407)" style="fill: #9ec5f4"/>
   </g>
   <g id="patch_21">
    <path d="M 92.081327 253.44 
L 93.812137 253.44 
L 93.812137 248.035515 
L 92.081327 248.035515 
z
" clip-path="url(#p60cb94f407)" style="fill: #9ec5f4"/>
   </g>
   <g id="patch_22">
    <path d="M 94.244839 253.44 
L 95.975649 253.44 
L 95.975649 239.491282 
L 94.244839 239.491282 
z
" clip-path="url(#p60cb94f407)" style="fill: #9ec5f4"/>
   </g>
   <g id="patch_23">
    <path d="M 96.408351 253.44 
L 98.139161 253.44 
L 98.139161 246.697262 
L 96.408351 246.697262 
z
" clip-path="url(#p60cb94f407)" style="fill: #9ec5f4"/>
   </g>
   <g id="patch_24">
    <path d="M 98.571863 253.44 
L 100.302673 253.44 
L 100.302673 232.542659 
L 98.571863 232.542659 
z
" clip-path="url(#p60cb94f407)" style="fill: #9ec5f4"/>
   </g>
   <g id="patch_25">
    <path d="M 100.735376 253.44 
L 102.466185 253.44 
L 102.466185 243.351628 
L 100.735376 243.351628 
z
" clip-path="url(#p60cb94f407)" style="fill: #9ec5f4"/>
   </g>
   <g id="patch_26">
    <path d="M 102.898888 253.44 
L 104.629698 253.44 
L 104.629698 231.101463 
L 102.898888 231.101463 
z
" clip-path="url(#p60cb94f407)" style="fill: #9ec5f4"/>
   </g>
   <g id="patch_27">
    <path d="M 105.0624 253.44 
L 106.79321 253.44 
L 106.79321 247.314917 
L 105.0624 247.314917 
z
" clip-path="url(#p60cb94f407)" style="fill: #9ec5f4"/>
   </g>
   <g id="patch_28">
    <path d="M 107.225912 253.44 
L 108.956722 253.44 
L 108.956722 250.557608 
L 107.225912 250.557608 
z
" clip-path="url(#p60cb94f407)" style="fill: #9ec5f4"/>
   </g>
   <g id="patch_29">
    <path d="M 109.389424 253.44 
L 111.120234 253.44 
L 111.120234 252.462046 
L 109.389424 252.462046 
z
" clip-path="url(#p60cb94f407)" style="fill: #9ec5f4"/>
   </g>
   <g id="patch_30">
    <path d="M 111.552937 253.44 
L 113.283746 253.44 
L 113.283746 234.652981 
L 111.552937 234.652981 
z
" clip-path="url(#p60cb94f407)" style="fill: #9ec5f4"/>
   </g>
   <g id="patch_31">
    <path d="M 113.716449 253.44 
L 115.447259 253.44 
L 115.447259 251.226735 
L 113.716449 251.226735 
z
" clip-path="url(#p60cb94f407)" style="fill: #9ec5f4"/>
   </g>
   <g id="patch_32">
    <path d="M 115.879961 253.44 
L 117.610771 253.44 
L 117.610771 234.241211 
L 115.879961 234.241211 
z
" clip-path="url(#p60cb94f407)" style="fill: #9ec5f4"/>
   </g>
   <g id="patch_33">
    <path d="M 118.043473 253.44 
L 119.774283 253.44 
L 119.774283 199.189267 
L 118.043473 199.189267 
z
" clip-path="url(#p60cb94f407)" style="fill: #9ec5f4"/>
   </g>
   <g id="patch_34">
    <path d="M 120.206985 253.44 
L 121.937795 253.44 
L 121.937795 201.505475 
L 120.206985 201.505475 
z
" clip-path="url(#p60cb94f407)" style="fill: #9ec5f4"/>
   </g>
   <g id="patch_35">
    <path d="M 122.370498 253.44 
L 124.101307 253.44 
L 124.101307 229.299968 
L 122.370498 229.299968 
z
" clip-path="url(#p60cb94f407)" style="fill: #9ec5f4"/>
   </g>
   <g id="patch_36">
    <path d="M 124.53401 253.44 
L 126.26482 253.44 
L 126.26482 185.755262 
L 124.53401 185.755262 
z
" clip-path="url(#p60cb94f407)" style="fill: #9ec5f4"/>
   </g>
   <g id="patch_37">
    <path d="M 126.697522 253.44 
L 128.428332 253.44 
L 128.428332 154.357778 
L 126.697522 154.357778 
z
" clip-path="url(#p60cb94f407)" style="fill: #9ec5f4"/>
   </g>
   <g id="patch_38">
    <path d="M 128.861034 253.44 
L 130.591844 253.44 
L 130.591844 179.68165 
L 128.861034 179.68165 
z
" clip-path="url(#p60cb94f407)" style="fill: #9ec5f4"/>
   </g>
   <g id="patch_39">
    <path d="M 131.024546 253.44 
L 132.755356 253.44 
L 132.755356 229.660267 
L 131.024546 229.660267 
z
" clip-path="url(#p60cb94f407)" style="fill: #9ec5f4"/>
   </g>
   <g id="patch_40">
    <path d="M 133.188059 253.44 
L 134.918868 253.44 
L 134.918868 181.483145 
L 133.188059 181.483145 
z
" clip-path="url(#p60cb94f407)" style="fill: #9ec5f4"/>
   </g>
   <g id="patch_41">
    <path d="M 135.351571 253.44 
L 137.08238 253.44 
L 137.08238 226.057277 
L 135.351571 226.057277 
z
" clip-path="url(#p60cb94f407)" style="fill: #9ec5f4"/>
   </g>
   <g id="patch_42">
    <path d="M 137.515083 253.44 
L 139.245893 253.44 
L 139.245893 216.329204 
L 137.515083 216.329204 
z
" clip-path="url(#p60cb94f407)" style="fill: #9ec5f4"/>
   </g>
   <g id="patch_43">
    <path d="M 139.678595 253.44 
L 141.409405 253.44 
L 141.409405 190.747976 
L 139.678595 190.747976 
z
" clip-path="url(#p60cb94f407)" style="fill: #9ec5f4"/>
   </g>
   <g id="patch_44">
    <path d="M 141.842107 253.44 
L 143.572917 253.44 
L 143.572917 159.865206 
L 141.842107 159.865206 
z
" clip-path="url(#p60cb94f407)" style="fill: #9ec5f4"/>
   </g>
   <g id="patch_45">
    <path d="M 144.00562 253.44 
L 145.736429 253.44 
L 145.736429 222.55723 
L 144.00562 222.55723 
z
" clip-path="url(#p60cb94f407)" style="fill: #9ec5f4"/>
   </g>
   <g id="patch_46">
    <path d="M 146.169132 253.44 
L 147.899941 253.44 
L 147.899941 222.351344 
L 146.169132 222.351344 
z
" clip-path="url(#p60cb94f407)" style="fill: #9ec5f4"/>
   </g>
   <g id="patch_47">
    <path d="M 148.332644 253.44 
L 150.063454 253.44 
L 150.063454 210.667363 
L 148.332644 210.667363 
z
" clip-path="url(#p60cb94f407)" style="fill: #9ec5f4"/>
   </g>
   <g id="patch_48">
    <path d="M 150.496156 253.44 
L 152.226966 253.44 
L 152.226966 237.278017 
L 150.496156 237.278017 
z
" clip-path="url(#p60cb94f407)" style="fill: #9ec5f4"/>
   </g>
   <g id="patch_49">
    <path d="M 152.659668 253.44 
L 154.390478 253.44 
L 154.390478 215.608606 
L 152.659668 215.608606 
z
" clip-path="url(#p60cb94f407)" style="fill: #9ec5f4"/>
   </g>
   <g id="patch_50">
    <path d="M 154.82318 253.44 
L 156.55399 253.44 
L 156.55399 238.667742 
L 154.82318 238.667742 
z
" clip-path="url(#p60cb94f407)" style="fill: #9ec5f4"/>
   </g>
   <g id="patch_51">
    <path d="M 156.986693 253.44 
L 158.717502 253.44 
L 158.717502 223.586655 
L 156.986693 223.586655 
z
" clip-path="url(#p60cb94f407)" style="fill: #9ec5f4"/>
   </g>
   <g id="patch_52">
    <path d="M 159.150205 253.44 
L 160.881015 253.44 
L 160.881015 183.644939 
L 159.150205 183.644939 
z
" clip-path="url(#p60cb94f407)" style="fill: #9ec5f4"/>
   </g>
   <g id="patch_53">
    <path d="M 161.313717 253.44 
L 163.044527 253.44 
L 163.044527 201.351061 
L 161.313717 201.351061 
z
" clip-path="url(#p60cb94f407)" style="fill: #9ec5f4"/>
   </g>
   <g id="patch_54">
    <path d="M 163.477229 253.44 
L 165.208039 253.44 
L 165.208039 227.138174 
L 163.477229 227.138174 
z
" clip-path="url(#p60cb94f407)" style="fill: #9ec5f4"/>
   </g>
   <g id="patch_55">
    <path d="M 165.640741 253.44 
L 167.371551 253.44 
L 167.371551 192.858299 
L 165.640741 192.858299 
z
" clip-path="url(#p60cb94f407)" style="fill: #9ec5f4"/>
   </g>
   <g id="patch_56">
    <path d="M 167.804254 253.44 
L 169.535063 253.44 
L 169.535063 182.666985 
L 167.804254 182.666985 
z
" clip-path="url(#p60cb94f407)" style="fill: #9ec5f4"/>
   </g>
   <g id="patch_57">
    <path d="M 169.967766 253.44 
L 171.698576 253.44 
L 171.698576 224.873437 
L 169.967766 224.873437 
z
" clip-path="url(#p60cb94f407)" style="fill: #9ec5f4"/>
   </g>
   <g id="patch_58">
    <path d="M 172.131278 253.44 
L 173.862088 253.44 
L 173.862088 196.976002 
L 172.131278 196.976002 
z
" clip-path="url(#p60cb94f407)" style="fill: #9ec5f4"/>
   </g>
   <g id="patch_59">
    <path d="M 174.29479 253.44 
L 176.0256 253.44 
L 176.0256 209.226167 
L 174.29479 209.226167 
z
" clip-path="url(#p60cb94f407)" style="fill: #9ec5f4"/>
   </g>
   <g id="patch_60">
    <path d="M 176.458302 253.44 
L 178.189112 253.44 
L 178.189112 250.454666 
L 176.458302 250.454666 
z
" clip-path="url(#p60cb94f407)" style="fill: #9ec5f4"/>
   </g>
   <g id="patch_61">
    <path d="M 178.621815 253.44 
L 180.352624 253.44 
L 180.352624 242.528088 
L 178.621815 242.528088 
z
" clip-path="url(#p60cb94f407)" style="fill: #9ec5f4"/>
   </g>
   <g id="patch_62">
    <path d="M 180.785327 253.44 
L 182.516137 253.44 
L 182.516137 243.454571 
L 180.785327 243.454571 
z
" clip-path="url(#p60cb94f407)" style="fill: #9ec5f4"/>
   </g>
   <g id="patch_63">
    <path d="M 182.948839 253.44 
L 184.679649 253.44 
L 184.679649 200.681934 
L 182.948839 200.681934 
z
" clip-path="url(#p60cb94f407)" style="fill: #9ec5f4"/>
   </g>
   <g id="patch_64">
    <path d="M 185.112351 253.44 
L 186.843161 253.44 
L 186.843161 189.924436 
L 185.112351 189.924436 
z
" clip-path="url(#p60cb94f407)" style="fill: #9ec5f4"/>
   </g>
   <g id="patch_65">
    <path d="M 187.275863 253.44 
L 189.006673 253.44 
L 189.006673 200.476049 
L 187.275863 200.476049 
z
" clip-path="url(#p60cb94f407)" style="fill: #9ec5f4"/>
   </g>
   <g id="patch_66">
    <path d="M 189.439376 253.44 
L 191.170185 253.44 
L 191.170185 210.461478 
L 189.439376 210.461478 
z
" clip-path="url(#p60cb94f407)" style="fill: #9ec5f4"/>
   </g>
   <g id="patch_67">
    <path d="M 191.602888 253.44 
L 193.333698 253.44 
L 193.333698 221.167505 
L 191.602888 221.167505 
z
" clip-path="url(#p60cb94f407)" style="fill: #9ec5f4"/>
   </g>
   <g id="patch_68">
    <path d="M 193.7664 253.44 
L 195.49721 253.44 
L 195.49721 177.313971 
L 193.7664 177.313971 
z
" clip-path="url(#p60cb94f407)" style="fill: #9ec5f4"/>
   </g>
   <g id="patch_69">
    <path d="M 195.929912 253.44 
L 197.660722 253.44 
L 197.660722 213.137985 
L 195.929912 213.137985 
z
" clip-path="url(#p60cb94f407)" style="fill: #9ec5f4"/>
   </g>
   <g id="patch_70">
    <path d="M 198.093424 253.44 
L 199.824234 253.44 
L 199.824234 217.873343 
L 198.093424 217.873343 
z
" clip-path="url(#p60cb94f407)" style="fill: #9ec5f4"/>
   </g>
   <g id="patch_71">
    <path d="M 200.256937 253.44 
L 201.987746 253.44 
L 201.987746 183.387583 
L 200.256937 183.387583 
z
" clip-path="url(#p60cb94f407)" style="fill: #9ec5f4"/>
   </g>
   <g id="patch_72">
    <path d="M 202.420449 253.44 
L 204.151259 253.44 
L 204.151259 203.306969 
L 202.420449 203.306969 
z
" clip-path="url(#p60cb94f407)" style="fill: #9ec5f4"/>
   </g>
   <g id="patch_73">
    <path d="M 204.583961 253.44 
L 206.314771 253.44 
L 206.314771 241.550133 
L 204.583961 241.550133 
z
" clip-path="url(#p60cb94f407)" style="fill: #9ec5f4"/>
   </g>
   <g id="patch_74">
    <path d="M 206.747473 253.44 
L 208.478283 253.44 
L 208.478283 204.799637 
L 206.747473 204.799637 
z
" clip-path="url(#p60cb94f407)" style="fill: #9ec5f4"/>
   </g>
   <g id="patch_75">
    <path d="M 208.910985 253.44 
L 210.641795 253.44 
L 210.641795 205.880534 
L 208.910985 205.880534 
z
" clip-path="url(#p60cb94f407)" style="fill: #9ec5f4"/>
   </g>
   <g id="patch_76">
    <path d="M 211.074498 253.44 
L 212.805307 253.44 
L 212.805307 212.211502 
L 211.074498 212.211502 
z
" clip-path="url(#p60cb94f407)" style="fill: #9ec5f4"/>
   </g>
   <g id="patch_77">
    <path d="M 213.23801 253.44 
L 214.96882 253.44 
L 214.96882 207.115844 
L 213.23801 207.115844 
z
" clip-path="url(#p60cb94f407)" style="fill: #9ec5f4"/>
   </g>
   <g id="patch_78">
    <path d="M 215.401522 253.44 
L 217.132332 253.44 
L 217.132332 201.299589 
L 215.401522 201.299589 
z
" clip-path="url(#p60cb94f407)" style="fill: #9ec5f4"/>
   </g>
   <g id="patch_79">
    <path d="M 217.565034 253.44 
L 219.295844 253.44 
L 219.295844 122.548525 
L 217.565034 122.548525 
z
" clip-path="url(#p60cb94f407)" style="fill: #9ec5f4"/>
   </g>
   <g id="patch_80">
    <path d="M 219.728546 253.44 
L 221.459356 253.44 
L 221.459356 246.388434 
L 219.728546 246.388434 
z
" clip-path="url(#p60cb94f407)" style="fill: #9ec5f4"/>
   </g>
   <g id="patch_81">
    <path d="M 221.892059 253.44 
L 223.622868 253.44 
L 223.622868 250.454666 
L 221.892059 250.454666 
z
" clip-path="url(#p60cb94f407)" style="fill: #9ec5f4"/>
   </g>
   <g id="patch_82">
    <path d="M 224.055571 253.44 
L 225.78638 253.44 
L 225.78638 201.402532 
L 224.055571 201.402532 
z
" clip-path="url(#p60cb94f407)" style="fill: #9ec5f4"/>
   </g>
   <g id="patch_83">
    <path d="M 226.219083 253.44 
L 227.949893 253.44 
L 227.949893 161.409344 
L 226.219083 161.409344 
z
" clip-path="url(#p60cb94f407)" style="fill: #9ec5f4"/>
   </g>
   <g id="patch_84">
    <path d="M 228.382595 253.44 
L 230.113405 253.44 
L 230.113405 215.093893 
L 228.382595 215.093893 
z
" clip-path="url(#p60cb94f407)" style="fill: #9ec5f4"/>
   </g>
   <g id="patch_85">
    <path d="M 230.546107 253.44 
L 232.276917 253.44 
L 232.276917 250.454666 
L 230.546107 250.454666 
z
" clip-path="url(#p60cb94f407)" style="fill: #9ec5f4"/>
   </g>
   <g id="patch_86">
    <path d="M 232.70962 253.44 
L 234.440429 253.44 
L 234.440429 215.299779 
L 232.70962 215.299779 
z
" clip-path="url(#p60cb94f407)" style="fill: #9ec5f4"/>
   </g>
   <g id="patch_87">
    <path d="M 234.873132 253.44 
L 236.603941 253.44 
L 236.603941 243.300157 
L 234.873132 243.300157 
z
" clip-path="url(#p60cb94f407)" style="fill: #9ec5f4"/>
   </g>
   <g id="patch_88">
    <path d="M 237.036644 253.44 
L 238.767454 253.44 
L 238.767454 213.704169 
L 237.036644 213.704169 
z
" clip-path="url(#p60cb94f407)" style="fill: #9ec5f4"/>
   </g>
   <g id="patch_89">
    <path d="M 239.200156 253.44 
L 240.930966 253.44 
L 240.930966 224.255782 
L 239.200156 224.255782 
z
" clip-path="url(#p60cb94f407)" style="fill: #9ec5f4"/>
   </g>
   <g id="patch_90">
    <path d="M 241.363668 253.44 
L 243.094478 253.44 
L 243.094478 222.351344 
L 241.363668 222.351344 
z
" clip-path="url(#p60cb94f407)" style="fill: #9ec5f4"/>
   </g>
   <g id="patch_91">
    <path d="M 243.52718 253.44 
L 245.25799 253.44 
L 245.25799 114.261648 
L 243.52718 114.261648 
z
" clip-path="url(#p60cb94f407)" style="fill: #9ec5f4"/>
   </g>
   <g id="patch_92">
    <path d="M 245.690693 253.44 
L 247.421502 253.44 
L 247.421502 206.704074 
L 245.690693 206.704074 
z
" clip-path="url(#p60cb94f407)" style="fill: #9ec5f4"/>
   </g>
   <g id="patch_93">
    <path d="M 247.854205 253.44 
L 249.585015 253.44 
L 249.585015 229.866152 
L 247.854205 229.866152 
z
" clip-path="url(#p60cb94f407)" style="fill: #9ec5f4"/>
   </g>
   <g id="patch_94">
    <path d="M 250.017717 253.44 
L 251.748527 253.44 
L 251.748527 183.850824 
L 250.017717 183.850824 
z
" clip-path="url(#p60cb94f407)" style="fill: #9ec5f4"/>
   </g>
   <g id="patch_95">
    <path d="M 252.181229 253.44 
L 253.912039 253.44 
L 253.912039 200.93929 
L 252.181229 200.93929 
z
" clip-path="url(#p60cb94f407)" style="fill: #9ec5f4"/>
   </g>
   <g id="patch_96">
    <path d="M 254.344741 253.44 
L 256.075551 253.44 
L 256.075551 228.424956 
L 254.344741 228.424956 
z
" clip-path="url(#p60cb94f407)" style="fill: #9ec5f4"/>
   </g>
   <g id="patch_97">
    <path d="M 256.508254 253.44 
L 258.239063 253.44 
L 258.239063 234.18974 
L 256.508254 234.18974 
z
" clip-path="url(#p60cb94f407)" style="fill: #9ec5f4"/>
   </g>
   <g id="patch_98">
    <path d="M 258.671766 253.44 
L 260.402576 253.44 
L 260.402576 211.799731 
L 258.671766 211.799731 
z
" clip-path="url(#p60cb94f407)" style="fill: #9ec5f4"/>
   </g>
   <g id="patch_99">
    <path d="M 260.835278 253.44 
L 262.566088 253.44 
L 262.566088 240.469236 
L 260.835278 240.469236 
z
" clip-path="url(#p60cb94f407)" style="fill: #9ec5f4"/>
   </g>
   <g id="patch_100">
    <path d="M 262.99879 253.44 
L 264.7296 253.44 
L 264.7296 224.56461 
L 262.99879 224.56461 
z
" clip-path="url(#p60cb94f407)" style="fill: #9ec5f4"/>
   </g>
   <g id="patch_101">
    <path d="M 265.162302 253.44 
L 266.893112 253.44 
L 266.893112 237.278017 
L 265.162302 237.278017 
z
" clip-path="url(#p60cb94f407)" style="fill: #9ec5f4"/>
   </g>
   <g id="patch_102">
    <path d="M 267.325815 253.44 
L 269.056624 253.44 
L 269.056624 211.799731 
L 267.325815 211.799731 
z
" clip-path="url(#p60cb94f407)" style="fill: #9ec5f4"/>
   </g>
   <g id="patch_103">
    <path d="M 269.489327 253.44 
L 271.220137 253.44 
L 271.220137 235.270637 
L 269.489327 235.270637 
z
" clip-path="url(#p60cb94f407)" style="fill: #9ec5f4"/>
   </g>
   <g id="patch_104">
    <path d="M 271.652839 253.44 
L 273.383649 253.44 
L 273.383649 241.447191 
L 271.652839 241.447191 
z
" clip-path="url(#p60cb94f407)" style="fill: #9ec5f4"/>
   </g>
   <g id="patch_105">
    <path d="M 273.816351 253.44 
L 275.547161 253.44 
L 275.547161 250.094367 
L 273.816351 250.094367 
z
" clip-path="url(#p60cb94f407)" style="fill: #9ec5f4"/>
   </g>
   <g id="patch_106">
    <path d="M 275.979863 253.44 
L 277.710673 253.44 
L 277.710673 239.130983 
L 275.979863 239.130983 
z
" clip-path="url(#p60cb94f407)" style="fill: #9ec5f4"/>
   </g>
   <g id="patch_107">
    <path d="M 278.143376 253.44 
L 279.874185 253.44 
L 279.874185 208.608512 
L 278.143376 208.608512 
z
" clip-path="url(#p60cb94f407)" style="fill: #9ec5f4"/>
   </g>
   <g id="patch_108">
    <path d="M 280.306888 253.44 
L 282.037698 253.44 
L 282.037698 218.388056 
L 280.306888 218.388056 
z
" clip-path="url(#p60cb94f407)" style="fill: #9ec5f4"/>
   </g>
   <g id="patch_109">
    <path d="M 282.4704 253.44 
L 284.20121 253.44 
L 284.20121 208.093799 
L 282.4704 208.093799 
z
" clip-path="url(#p60cb94f407)" style="fill: #9ec5f4"/>
   </g>
   <g id="patch_110">
    <path d="M 284.633912 253.44 
L 286.364722 253.44 
L 286.364722 197.851013 
L 284.633912 197.851013 
z
" clip-path="url(#p60cb94f407)" style="fill: #9ec5f4"/>
   </g>
   <g id="patch_111">
    <path d="M 286.797424 253.44 
L 288.528234 253.44 
L 288.528234 178.806638 
L 286.797424 178.806638 
z
" clip-path="url(#p60cb94f407)" style="fill: #9ec5f4"/>
   </g>
   <g id="patch_112">
    <path d="M 288.960937 253.44 
L 290.691746 253.44 
L 290.691746 91.253984 
L 288.960937 91.253984 
z
" clip-path="url(#p60cb94f407)" style="fill: #9ec5f4"/>
   </g>
   <g id="patch_113">
    <path d="M 291.124449 253.44 
L 292.855259 253.44 
L 292.855259 210.924719 
L 291.124449 210.924719 
z
" clip-path="url(#p60cb94f407)" style="fill: #9ec5f4"/>
   </g>
   <g id="patch_114">
    <path d="M 293.287961 253.44 
L 295.018771 253.44 
L 295.018771 210.358535 
L 293.287961 210.358535 
z
" clip-path="url(#p60cb94f407)" style="fill: #9ec5f4"/>
   </g>
   <g id="patch_115">
    <path d="M 295.451473 253.44 
L 297.182283 253.44 
L 297.182283 247.263446 
L 295.451473 247.263446 
z
" clip-path="url(#p60cb94f407)" style="fill: #9ec5f4"/>
   </g>
   <g id="patch_116">
    <path d="M 297.614985 253.44 
L 299.345795 253.44 
L 299.345795 225.439622 
L 297.614985 225.439622 
z
" clip-path="url(#p60cb94f407)" style="fill: #9ec5f4"/>
   </g>
   <g id="patch_117">
    <path d="M 299.778498 253.44 
L 301.509307 253.44 
L 301.509307 216.740975 
L 299.778498 216.740975 
z
" clip-path="url(#p60cb94f407)" style="fill: #9ec5f4"/>
   </g>
   <g id="patch_118">
    <path d="M 301.94201 253.44 
L 303.67282 253.44 
L 303.67282 119.15142 
L 301.94201 119.15142 
z
" clip-path="url(#p60cb94f407)" style="fill: #9ec5f4"/>
   </g>
   <g id="patch_119">
    <path d="M 304.105522 253.44 
L 305.836332 253.44 
L 305.836332 154.40925 
L 304.105522 154.40925 
z
" clip-path="url(#p60cb94f407)" style="fill: #9ec5f4"/>
   </g>
   <g id="patch_120">
    <path d="M 306.269034 253.44 
L 307.999844 253.44 
L 307.999844 191.674459 
L 306.269034 191.674459 
z
" clip-path="url(#p60cb94f407)" style="fill: #9ec5f4"/>
   </g>
   <g id="patch_121">
    <path d="M 308.432546 253.44 
L 310.163356 253.44 
L 310.163356 154.923963 
L 308.432546 154.923963 
z
" clip-path="url(#p60cb94f407)" style="fill: #9ec5f4"/>
   </g>
   <g id="patch_122">
    <path d="M 310.596059 253.44 
L 312.326868 253.44 
L 312.326868 210.358535 
L 310.596059 210.358535 
z
" clip-path="url(#p60cb94f407)" style="fill: #9ec5f4"/>
   </g>
   <g id="patch_123">
    <path d="M 312.759571 253.44 
L 314.49038 253.44 
L 314.49038 103.761506 
L 312.759571 103.761506 
z
" clip-path="url(#p60cb94f407)" style="fill: #9ec5f4"/>
   </g>
   <g id="patch_124">
    <path d="M 314.923083 253.44 
L 316.653893 253.44 
L 316.653893 154.975434 
L 314.923083 154.975434 
z
" clip-path="url(#p60cb94f407)" style="fill: #9ec5f4"/>
   </g>
   <g id="patch_125">
    <path d="M 317.086595 253.44 
L 318.817405 253.44 
L 318.817405 170.262405 
L 317.086595 170.262405 
z
" clip-path="url(#p60cb94f407)" style="fill: #9ec5f4"/>
   </g>
   <g id="patch_126">
    <path d="M 319.250107 253.44 
L 320.980917 253.44 
L 320.980917 209.637937 
L 319.250107 209.637937 
z
" clip-path="url(#p60cb94f407)" style="fill: #9ec5f4"/>
   </g>
   <g id="patch_127">
    <path d="M 321.41362 253.44 
L 323.144429 253.44 
L 323.144429 186.578802 
L 321.41362 186.578802 
z
" clip-path="url(#p60cb94f407)" style="fill: #9ec5f4"/>
   </g>
   <g id="patch_128">
    <path d="M 323.577132 253.44 
L 325.307941 253.44 
L 325.307941 217.821872 
L 323.577132 217.821872 
z
" clip-path="url(#p60cb94f407)" style="fill: #9ec5f4"/>
   </g>
   <g id="patch_129">
    <path d="M 325.740644 253.44 
L 327.471454 253.44 
L 327.471454 176.902201 
L 325.740644 176.902201 
z
" clip-path="url(#p60cb94f407)" style="fill: #9ec5f4"/>
   </g>
   <g id="patch_130">
    <path d="M 327.904156 253.44 
L 329.634966 253.44 
L 329.634966 166.916772 
L 327.904156 166.916772 
z
" clip-path="url(#p60cb94f407)" style="fill: #9ec5f4"/>
   </g>
   <g id="patch_131">
    <path d="M 330.067668 253.44 
L 331.798478 253.44 
L 331.798478 210.307064 
L 330.067668 210.307064 
z
" clip-path="url(#p60cb94f407)" style="fill: #9ec5f4"/>
   </g>
   <g id="patch_132">
    <path d="M 332.23118 253.44 
L 333.96199 253.44 
L 333.96199 204.593752 
L 332.23118 204.593752 
z
" clip-path="url(#p60cb94f407)" style="fill: #9ec5f4"/>
   </g>
   <g id="patch_133">
    <path d="M 334.394693 253.44 
L 336.125502 253.44 
L 336.125502 160.174033 
L 334.394693 160.174033 
z
" clip-path="url(#p60cb94f407)" style="fill: #9ec5f4"/>
   </g>
   <g id="patch_134">
    <path d="M 336.558205 253.44 
L 338.289015 253.44 
L 338.289015 226.674932 
L 336.558205 226.674932 
z
" clip-path="url(#p60cb94f407)" style="fill: #9ec5f4"/>
   </g>
   <g id="patch_135">
    <path d="M 338.721717 253.44 
L 340.452527 253.44 
L 340.452527 205.056993 
L 338.721717 205.056993 
z
" clip-path="url(#p60cb94f407)" style="fill: #9ec5f4"/>
   </g>
   <g id="patch_136">
    <path d="M 340.885229 253.44 
L 342.616039 253.44 
L 342.616039 182.409628 
L 340.885229 182.409628 
z
" clip-path="url(#p60cb94f407)" style="fill: #9ec5f4"/>
   </g>
   <g id="patch_137">
    <path d="M 343.048741 253.44 
L 344.779551 253.44 
L 344.779551 222.299873 
L 343.048741 222.299873 
z
" clip-path="url(#p60cb94f407)" style="fill: #9ec5f4"/>
   </g>
   <g id="patch_138">
    <path d="M 345.212254 253.44 
L 346.943063 253.44 
L 346.943063 215.145365 
L 345.212254 215.145365 
z
" clip-path="url(#p60cb94f407)" style="fill: #9ec5f4"/>
   </g>
   <g id="patch_139">
    <path d="M 347.375766 253.44 
L 349.106576 253.44 
L 349.106576 141.798785 
L 347.375766 141.798785 
z
" clip-path="url(#p60cb94f407)" style="fill: #9ec5f4"/>
   </g>
   <g id="patch_140">
    <path d="M 349.539278 253.44 
L 351.270088 253.44 
L 351.270088 156.107802 
L 349.539278 156.107802 
z
" clip-path="url(#p60cb94f407)" style="fill: #9ec5f4"/>
   </g>
   <g id="patch_141">
    <path d="M 351.70279 253.44 
L 353.4336 253.44 
L 353.4336 223.38077 
L 351.70279 223.38077 
z
" clip-path="url(#p60cb94f407)" style="fill: #9ec5f4"/>
   </g>
   <g id="patch_142">
    <path d="M 353.866302 253.44 
L 355.597112 253.44 
L 355.597112 149.004765 
L 353.866302 149.004765 
z
" clip-path="url(#p60cb94f407)" style="fill: #9ec5f4"/>
   </g>
   <g id="patch_143">
    <path d="M 356.029815 253.44 
L 357.760624 253.44 
L 357.760624 206.807017 
L 356.029815 206.807017 
z
" clip-path="url(#p60cb94f407)" style="fill: #9ec5f4"/>
   </g>
   <g id="patch_144">
    <path d="M 358.193327 253.44 
L 359.924137 253.44 
L 359.924137 181.380202 
L 358.193327 181.380202 
z
" clip-path="url(#p60cb94f407)" style="fill: #9ec5f4"/>
   </g>
   <g id="patch_145">
    <path d="M 360.356839 253.44 
L 362.087649 253.44 
L 362.087649 139.739934 
L 360.356839 139.739934 
z
" clip-path="url(#p60cb94f407)" style="fill: #9ec5f4"/>
   </g>
   <g id="patch_146">
    <path d="M 362.520351 253.44 
L 364.251161 253.44 
L 364.251161 233.880912 
L 362.520351 233.880912 
z
" clip-path="url(#p60cb94f407)" style="fill: #9ec5f4"/>
   </g>
   <g id="patch_147">
    <path d="M 364.683863 253.44 
L 366.414673 253.44 
L 366.414673 242.476617 
L 364.683863 242.476617 
z
" clip-path="url(#p60cb94f407)" style="fill: #9ec5f4"/>
   </g>
   <g id="patch_148">
    <path d="M 366.847376 253.44 
L 368.578185 253.44 
L 368.578185 185.29202 
L 366.847376 185.29202 
z
" clip-path="url(#p60cb94f407)" style="fill: #9ec5f4"/>
   </g>
   <g id="patch_149">
    <path d="M 369.010888 253.44 
L 370.741698 253.44 
L 370.741698 140.512003 
L 369.010888 140.512003 
z
" clip-path="url(#p60cb94f407)" style="fill: #9ec5f4"/>
   </g>
   <g id="patch_150">
    <path d="M 371.1744 253.44 
L 372.90521 253.44 
L 372.90521 182.358157 
L 371.1744 182.358157 
z
" clip-path="url(#p60cb94f407)" style="fill: #9ec5f4"/>
   </g>
   <g id="patch_151">
    <path d="M 373.337912 253.44 
L 375.068722 253.44 
L 375.068722 107.51891 
L 373.337912 107.51891 
z
" clip-path="url(#p60cb94f407)" style="fill: #9ec5f4"/>
   </g>
   <g id="patch_152">
    <path d="M 375.501424 253.44 
L 377.232234 253.44 
L 377.232234 141.644371 
L 375.501424 141.644371 
z
" clip-path="url(#p60cb94f407)" style="fill: #9ec5f4"/>
   </g>
   <g id="patch_153">
    <path d="M 377.664937 253.44 
L 379.395746 253.44 
L 379.395746 207.7335 
L 377.664937 207.7335 
z
" clip-path="url(#p60cb94f407)" style="fill: #9ec5f4"/>
   </g>
   <g id="patch_154">
    <path d="M 379.828449 253.44 
L 381.559259 253.44 
L 381.559259 171.806544 
L 379.828449 171.806544 
z
" clip-path="url(#p60cb94f407)" style="fill: #9ec5f4"/>
   </g>
   <g id="patch_155">
    <path d="M 381.991961 253.44 
L 383.722771 253.44 
L 383.722771 180.402248 
L 381.991961 180.402248 
z
" clip-path="url(#p60cb94f407)" style="fill: #9ec5f4"/>
   </g>
   <g id="patch_156">
    <path d="M 384.155473 253.44 
L 385.886283 253.44 
L 385.886283 154.718077 
L 384.155473 154.718077 
z
" clip-path="url(#p60cb94f407)" style="fill: #9ec5f4"/>
   </g>
   <g id="patch_157">
    <path d="M 386.318985 253.44 
L 388.049795 253.44 
L 388.049795 127.077998 
L 386.318985 127.077998 
z
" clip-path="url(#p60cb94f407)" style="fill: #9ec5f4"/>
   </g>
   <g id="patch_158">
    <path d="M 388.482498 253.44 
L 390.213307 253.44 
L 390.213307 152.453341 
L 388.482498 152.453341 
z
" clip-path="url(#p60cb94f407)" style="fill: #9ec5f4"/>
   </g>
   <g id="patch_159">
    <path d="M 390.64601 253.44 
L 392.37682 253.44 
L 392.37682 112.048383 
L 390.64601 112.048383 
z
" clip-path="url(#p60cb94f407)" style="fill: #9ec5f4"/>
   </g>
   <g id="patch_160">
    <path d="M 392.809522 253.44 
L 394.540332 253.44 
L 394.540332 72.106667 
L 392.809522 72.106667 
z
" clip-path="url(#p60cb94f407)" style="fill: #9ec5f4"/>
   </g>
   <g id="patch_161">
    <path d="M 394.973034 253.44 
L 396.703844 253.44 
L 396.703844 151.938628 
L 394.973034 151.938628 
z
" clip-path="url(#p60cb94f407)" style="fill: #9ec5f4"/>
   </g>
   <g id="patch_162">
    <path d="M 397.136546 253.44 
L 398.867356 253.44 
L 398.867356 165.475576 
L 397.136546 165.475576 
z
" clip-path="url(#p60cb94f407)" style="fill: #9ec5f4"/>
   </g>
   <g id="patch_163">
    <path d="M 399.300059 253.44 
L 401.030868 253.44 
L 401.030868 136.703128 
L 399.300059 136.703128 
z
" clip-path="url(#p60cb94f407)" style="fill: #9ec5f4"/>
   </g>
   <g id="patch_164">
    <path d="M 401.463571 253.44 
L 403.19438 253.44 
L 403.19438 170.571233 
L 401.463571 170.571233 
z
" clip-path="url(#p60cb94f407)" style="fill: #9ec5f4"/>
   </g>
   <g id="patch_165">
    <path d="M 403.627083 253.44 
L 405.357893 253.44 
L 405.357893 191.005333 
L 403.627083 191.005333 
z
" clip-path="url(#p60cb94f407)" style="fill: #9ec5f4"/>
   </g>
   <g id="patch_166">
    <path d="M 405.790595 253.44 
L 407.521405 253.44 
L 407.521405 169.953577 
L 405.790595 169.953577 
z
" clip-path="url(#p60cb94f407)" style="fill: #9ec5f4"/>
   </g>
   <g id="patch_167">
    <path d="M 407.954107 253.44 
L 409.684917 253.44 
L 409.684917 185.29202 
L 407.954107 185.29202 
z
" clip-path="url(#p60cb94f407)" style="fill: #9ec5f4"/>
   </g>
   <g id="patch_168">
    <path d="M 410.11762 253.44 
L 411.848429 253.44 
L 411.848429 206.601132 
L 410.11762 206.601132 
z
" clip-path="url(#p60cb94f407)" style="fill: #9ec5f4"/>
   </g>
   <g id="patch_169">
    <path d="M 412.281132 253.44 
L 414.011941 253.44 
L 414.011941 185.600848 
L 412.281132 185.600848 
z
" clip-path="url(#p60cb94f407)" style="fill: #9ec5f4"/>
   </g>
   <g id="patch_170">
    <path d="M 414.444644 253.44 
L 416.175454 253.44 
L 416.175454 186.269974 
L 414.444644 186.269974 
z
" clip-path="url(#p60cb94f407)" style="fill: #9ec5f4"/>
   </g>
   <g id="patch_171">
    <path d="M 416.608156 253.44 
L 418.338966 253.44 
L 418.338966 198.726025 
L 416.608156 198.726025 
z
" clip-path="url(#p60cb94f407)" style="fill: #9ec5f4"/>
   </g>
   <g id="patch_172">
    <path d="M 418.771668 253.44 
L 420.502478 253.44 
L 420.502478 167.431485 
L 418.771668 167.431485 
z
" clip-path="url(#p60cb94f407)" style="fill: #9ec5f4"/>
   </g>
   <g id="patch_173">
    <path d="M 420.93518 253.44 
L 422.66599 253.44 
L 422.66599 205.777591 
L 420.93518 205.777591 
z
" clip-path="url(#p60cb94f407)" style="fill: #9ec5f4"/>
   </g>
   <g id="patch_174">
    <path d="M 423.098693 253.44 
L 424.829502 253.44 
L 424.829502 204.748165 
L 423.098693 204.748165 
z
" clip-path="url(#p60cb94f407)" style="fill: #9ec5f4"/>
   </g>
   <g id="patch_175">
    <path d="M 425.262205 253.44 
L 426.993015 253.44 
L 426.993015 223.741069 
L 425.262205 223.741069 
z
" clip-path="url(#p60cb94f407)" style="fill: #9ec5f4"/>
   </g>
   <g id="patch_176">
    <path d="M 427.425717 253.44 
L 429.156527 253.44 
L 429.156527 234.807395 
L 427.425717 234.807395 
z
" clip-path="url(#p60cb94f407)" style="fill: #9ec5f4"/>
   </g>
   <g id="patch_177">
    <path d="M 429.589229 253.44 
L 431.320039 253.44 
L 431.320039 202.329015 
L 429.589229 202.329015 
z
" clip-path="url(#p60cb94f407)" style="fill: #9ec5f4"/>
   </g>
   <g id="patch_178">
    <path d="M 431.752741 253.44 
L 433.483551 253.44 
L 433.483551 193.373012 
L 431.752741 193.373012 
z
" clip-path="url(#p60cb94f407)" style="fill: #9ec5f4"/>
   </g>
   <g id="patch_179">
    <path d="M 433.916254 253.44 
L 435.647063 253.44 
L 435.647063 227.241116 
L 433.916254 227.241116 
z
" clip-path="url(#p60cb94f407)" style="fill: #9ec5f4"/>
   </g>
   <g id="patch_180">
    <path d="M 436.079766 253.44 
L 437.810576 253.44 
L 437.810576 225.027851 
L 436.079766 225.027851 
z
" clip-path="url(#p60cb94f407)" style="fill: #9ec5f4"/>
   </g>
   <g id="patch_181">
    <path d="M 438.243278 253.44 
L 439.974088 253.44 
L 439.974088 215.454192 
L 438.243278 215.454192 
z
" clip-path="url(#p60cb94f407)" style="fill: #9ec5f4"/>
   </g>
   <g id="patch_182">
    <path d="M 440.40679 253.44 
L 442.1376 253.44 
L 442.1376 237.432431 
L 440.40679 237.432431 
z
" clip-path="url(#p60cb94f407)" style="fill: #9ec5f4"/>
   </g>
   <g id="patch_183">
    <path d="M 442.570302 253.44 
L 444.301112 253.44 
L 444.301112 229.969095 
L 442.570302 229.969095 
z
" clip-path="url(#p60cb94f407)" style="fill: #9ec5f4"/>
   </g>
   <g id="patch_184">
    <path d="M 444.733815 253.44 
L 446.464624 253.44 
L 446.464624 198.983382 
L 444.733815 198.983382 
z
" clip-path="url(#p60cb94f407)" style="fill: #9ec5f4"/>
   </g>
   <g id="patch_185">
    <path d="M 446.897327 253.44 
L 448.628137 253.44 
L 448.628137 211.182076 
L 446.897327 211.182076 
z
" clip-path="url(#p60cb94f407)" style="fill: #9ec5f4"/>
   </g>
   <g id="patch_186">
    <path d="M 449.060839 253.44 
L 450.791649 253.44 
L 450.791649 222.299873 
L 449.060839 222.299873 
z
" clip-path="url(#p60cb94f407)" style="fill: #9ec5f4"/>
   </g>
   <g id="patch_187">
    <path d="M 451.224351 253.44 
L 452.955161 253.44 
L 452.955161 172.835969 
L 451.224351 172.835969 
z
" clip-path="url(#p60cb94f407)" style="fill: #9ec5f4"/>
   </g>
   <g id="patch_188">
    <path d="M 453.387863 253.44 
L 455.118673 253.44 
L 455.118673 156.365158 
L 453.387863 156.365158 
z
" clip-path="url(#p60cb94f407)" style="fill: #9ec5f4"/>
   </g>
   <g id="patch_189">
    <path d="M 455.551376 253.44 
L 457.282185 253.44 
L 457.282185 200.681934 
L 455.551376 200.681934 
z
" clip-path="url(#p60cb94f407)" style="fill: #9ec5f4"/>
   </g>
   <g id="patch_190">
    <path d="M 457.714888 253.44 
L 459.445698 253.44 
L 459.445698 199.395152 
L 457.714888 199.395152 
z
" clip-path="url(#p60cb94f407)" style="fill: #9ec5f4"/>
   </g>
   <g id="patch_191">
    <path d="M 459.8784 253.44 
L 461.60921 253.44 
L 461.60921 198.211312 
L 459.8784 198.211312 
z
" clip-path="url(#p60cb94f407)" style="fill: #9ec5f4"/>
   </g>
   <g id="patch_192">
    <path d="M 462.041912 253.44 
L 463.772722 253.44 
L 463.772722 215.299779 
L 462.041912 215.299779 
z
" clip-path="url(#p60cb94f407)" style="fill: #9ec5f4"/>
   </g>
   <g id="patch_193">
    <path d="M 464.205424 253.44 
L 465.936234 253.44 
L 465.936234 202.689314 
L 464.205424 202.689314 
z
" clip-path="url(#p60cb94f407)" style="fill: #9ec5f4"/>
   </g>
   <g id="patch_194">
    <path d="M 466.368937 253.44 
L 468.099746 253.44 
L 468.099746 207.218787 
L 466.368937 207.218787 
z
" clip-path="url(#p60cb94f407)" style="fill: #9ec5f4"/>
   </g>
   <g id="patch_195">
    <path d="M 468.532449 253.44 
L 470.263259 253.44 
L 470.263259 193.733311 
L 468.532449 193.733311 
z
" clip-path="url(#p60cb94f407)" style="fill: #9ec5f4"/>
   </g>
   <g id="patch_196">
    <path d="M 470.695961 253.44 
L 472.426771 253.44 
L 472.426771 171.497716 
L 470.695961 171.497716 
z
" clip-path="url(#p60cb94f407)" style="fill: #9ec5f4"/>
   </g>
   <g id="patch_197">
    <path d="M 472.859473 253.44 
L 474.590283 253.44 
L 474.590283 206.292304 
L 472.859473 206.292304 
z
" clip-path="url(#p60cb94f407)" style="fill: #9ec5f4"/>
   </g>
   <g id="patch_198">
    <path d="M 475.022985 253.44 
L 476.753795 253.44 
L 476.753795 119.769076 
L 475.022985 119.769076 
z
" clip-path="url(#p60cb94f407)" style="fill: #9ec5f4"/>
   </g>
   <g id="patch_199">
    <path d="M 477.186498 253.44 
L 478.917307 253.44 
L 478.917307 200.784877 
L 477.186498 200.784877 
z
" clip-path="url(#p60cb94f407)" style="fill: #9ec5f4"/>
   </g>
   <g id="patch_200">
    <path d="M 479.35001 253.44 
L 481.08082 253.44 
L 481.08082 180.041949 
L 479.35001 180.041949 
z
" clip-path="url(#p60cb94f407)" style="fill: #9ec5f4"/>
   </g>
   <g id="patch_201">
    <path d="M 481.513522 253.44 
L 483.244332 253.44 
L 483.244332 187.659699 
L 481.513522 187.659699 
z
" clip-path="url(#p60cb94f407)" style="fill: #9ec5f4"/>
   </g>
   <g id="patch_202">
    <path d="M 483.677034 253.44 
L 485.407844 253.44 
L 485.407844 137.835496 
L 483.677034 137.835496 
z
" clip-path="url(#p60cb94f407)" style="fill: #9ec5f4"/>
   </g>
   <g id="patch_203">
    <path d="M 485.840546 253.44 
L 487.571356 253.44 
L 487.571356 202.895199 
L 485.840546 202.895199 
z
" clip-path="url(#p60cb94f407)" style="fill: #9ec5f4"/>
   </g>
   <g id="patch_204">
    <path d="M 488.004059 253.44 
L 489.734868 253.44 
L 489.734868 206.858488 
L 488.004059 206.858488 
z
" clip-path="url(#p60cb94f407)" style="fill: #9ec5f4"/>
   </g>
   <g id="patch_205">
    <path d="M 490.167571 253.44 
L 491.89838 253.44 
L 491.89838 188.997953 
L 490.167571 188.997953 
z
" clip-path="url(#p60cb94f407)" style="fill: #9ec5f4"/>
   </g>
   <g id="patch_206">
    <path d="M 492.331083 253.44 
L 494.061893 253.44 
L 494.061893 207.682029 
L 492.331083 207.682029 
z
" clip-path="url(#p60cb94f407)" style="fill: #9ec5f4"/>
   </g>
   <g id="line2d_18">
    <path d="M 116.745366 222.867773 
L 118.908878 221.291036 
L 121.07239 221.89325 
L 123.235902 222.778556 
L 125.399415 222.346197 
L 127.562927 220.870687 
L 129.726439 219.242479 
L 131.889951 220.215286 
L 134.053463 222.167764 
L 136.216976 223.967543 
L 138.380488 223.665578 
L 140.544 222.687624 
L 142.707512 220.086608 
L 144.871024 219.683416 
L 147.034537 220.395436 
L 149.198049 220.594458 
L 151.361561 220.606468 
L 153.525073 220.235875 
L 155.688585 220.424603 
L 157.852098 219.609641 
L 160.01561 217.748096 
L 162.179122 216.236556 
L 164.342634 216.056406 
L 168.669659 212.758813 
L 170.833171 212.010764 
L 172.996683 210.22471 
L 175.160195 208.783514 
L 177.323707 209.310237 
L 179.48722 209.020282 
L 181.650732 209.327394 
L 183.814244 209.37715 
L 185.977756 208.991115 
L 188.141268 208.030318 
L 190.30478 208.853858 
L 192.468293 211.080849 
L 194.631805 211.001926 
L 196.795317 210.451184 
L 198.958829 211.66419 
L 201.122341 210.241867 
L 203.285854 209.807793 
L 205.449366 211.501198 
L 207.612878 212.999012 
L 209.77639 212.443122 
L 211.939902 212.105128 
L 214.103415 211.986744 
L 216.266927 210.787463 
L 218.430439 207.68546 
L 220.593951 207.942816 
L 222.757463 208.838417 
L 224.920976 209.430337 
L 227.084488 208.098946 
L 229.248 207.69747 
L 231.411512 209.617349 
L 233.575024 210.705109 
L 237.902049 211.876938 
L 240.065561 212.377925 
L 242.229073 211.441148 
L 244.392585 207.1656 
L 246.556098 205.940583 
L 248.71961 206.913391 
L 250.883122 206.710937 
L 253.046634 206.726378 
L 255.210146 207.325161 
L 257.373659 207.759236 
L 259.537171 208.908761 
L 261.700683 209.819803 
L 263.864195 210.042845 
L 266.027707 211.839193 
L 268.19122 212.122285 
L 270.354732 211.912968 
L 272.518244 213.134553 
L 274.681756 214.608348 
L 276.845268 215.505664 
L 279.00878 215.555419 
L 281.172293 216.125035 
L 283.335805 218.976544 
L 285.499317 217.35863 
L 287.662829 214.970362 
L 289.826341 211.298744 
L 291.989854 212.949257 
L 296.316878 212.685037 
L 298.48039 213.023032 
L 300.643902 212.137726 
L 302.807415 208.985968 
L 304.970927 206.65775 
L 307.134439 205.635187 
L 309.297951 206.990598 
L 311.461463 207.112413 
L 313.624976 202.908925 
L 317.952 200.923849 
L 320.115512 200.297615 
L 322.279024 198.710584 
L 324.442537 198.911322 
L 326.606049 196.792421 
L 328.769561 194.870826 
L 330.933073 193.971794 
L 333.096585 193.731595 
L 335.260098 191.228375 
L 337.42361 190.735966 
L 339.587122 189.23472 
L 341.750634 187.344009 
L 343.914146 187.800387 
L 346.077659 187.692298 
L 348.241171 185.482464 
L 350.404683 184.091023 
L 352.568195 185.576828 
L 354.731707 187.501854 
L 356.89522 187.364597 
L 359.058732 186.398653 
L 361.222244 182.814536 
L 363.385756 183.095912 
L 365.549268 183.953767 
L 367.71278 186.158453 
L 369.876293 185.695212 
L 372.039805 185.384668 
L 374.203317 183.8045 
L 376.366829 181.514028 
L 378.530341 184.979761 
L 380.693854 185.540798 
L 382.857366 185.878793 
L 385.020878 184.048131 
L 387.18439 182.064771 
L 391.511415 177.724026 
L 393.674927 174.563689 
L 395.838439 172.618074 
L 398.001951 171.314135 
L 400.165463 170.531772 
L 402.328976 168.661648 
L 406.656 167.778058 
L 408.819512 166.544463 
L 410.983024 166.259655 
L 413.146537 167.719724 
L 415.310049 168.725129 
L 417.473561 167.903305 
L 419.637073 168.517529 
L 421.800585 168.483214 
L 423.964098 169.262147 
L 426.12761 172.062184 
L 428.291122 172.093067 
L 430.454634 170.754814 
L 432.618146 171.02418 
L 434.781659 173.915151 
L 436.945171 175.337474 
L 439.108683 178.935316 
L 441.272195 182.128252 
L 443.435707 182.869438 
L 447.762732 184.801327 
L 449.926244 187.054054 
L 452.089756 188.579319 
L 454.253268 188.709713 
L 456.41678 191.664165 
L 458.580293 195.907115 
L 462.907317 199.110344 
L 465.070829 201.309884 
L 467.234341 202.531469 
L 471.561366 202.673873 
L 473.724878 203.373882 
L 475.88839 200.47948 
L 478.051902 200.985615 
L 480.215415 200.778014 
L 482.378927 200.409136 
L 484.542439 199.422603 
L 486.705951 199.326523 
L 488.869463 199.396868 
L 491.032976 198.238764 
L 493.196488 197.334585 
L 493.196488 197.334585 
" clip-path="url(#p60cb94f407)" style="fill: none; stroke: #2a78d6; stroke-width: 2; stroke-linecap: round"/>
   </g>
   <g id="patch_207">
    <path d="M 51.84 253.44 
L 495.36 253.44 
" style="fill: none; stroke: #c3c2b7; stroke-width: 0.8; stroke-linejoin: miter; stroke-linecap: square"/>
   </g>
   <g id="text_13">
    <!-- 1,090/day -->
    <g style="fill: #0b0b0b" transform="translate(501.196488 199.932632) scale(0.1 -0.1)">
     <defs>
      <path id="DejaVuSans-Bold-14" d="M 750 831 
L 1813 831 
L 1813 3847 
L 722 3622 
L 722 4441 
L 1806 4666 
L 2950 4666 
L 2950 831 
L 4013 831 
L 4013 0 
L 750 0 
L 750 831 
z
" transform="scale(0.015625)"/>
      <path id="DejaVuSans-Bold-f" d="M 653 1209 
L 1778 1209 
L 1778 256 
L 1006 -909 
L 341 -909 
L 653 256 
L 653 1209 
z
" transform="scale(0.015625)"/>
      <path id="DejaVuSans-Bold-13" d="M 2944 2338 
Q 2944 3213 2780 3570 
Q 2616 3928 2228 3928 
Q 1841 3928 1675 3570 
Q 1509 3213 1509 2338 
Q 1509 1453 1675 1090 
Q 1841 728 2228 728 
Q 2613 728 2778 1090 
Q 2944 1453 2944 2338 
z
M 4147 2328 
Q 4147 1169 3647 539 
Q 3147 -91 2228 -91 
Q 1306 -91 806 539 
Q 306 1169 306 2328 
Q 306 3491 806 4120 
Q 1306 4750 2228 4750 
Q 3147 4750 3647 4120 
Q 4147 3491 4147 2328 
z
" transform="scale(0.015625)"/>
      <path id="DejaVuSans-Bold-1c" d="M 641 103 
L 641 966 
Q 928 831 1190 764 
Q 1453 697 1709 697 
Q 2247 697 2547 995 
Q 2847 1294 2900 1881 
Q 2688 1725 2447 1647 
Q 2206 1569 1925 1569 
Q 1209 1569 770 1986 
Q 331 2403 331 3084 
Q 331 3838 820 4291 
Q 1309 4744 2131 4744 
Q 3044 4744 3544 4128 
Q 4044 3513 4044 2388 
Q 4044 1231 3459 570 
Q 2875 -91 1856 -91 
Q 1528 -91 1228 -42 
Q 928 6 641 103 
z
M 2125 2350 
Q 2441 2350 2600 2554 
Q 2759 2759 2759 3169 
Q 2759 3575 2600 3781 
Q 2441 3988 2125 3988 
Q 1809 3988 1650 3781 
Q 1491 3575 1491 3169 
Q 1491 2759 1650 2554 
Q 1809 2350 2125 2350 
z
" transform="scale(0.015625)"/>
      <path id="DejaVuSans-Bold-12" d="M 1644 4666 
L 2338 4666 
L 691 -594 
L 0 -594 
L 1644 4666 
z
" transform="scale(0.015625)"/>
      <path id="DejaVuSans-Bold-47" d="M 2919 2988 
L 2919 4863 
L 4044 4863 
L 4044 0 
L 2919 0 
L 2919 506 
Q 2688 197 2409 53 
Q 2131 -91 1766 -91 
Q 1119 -91 703 423 
Q 288 938 288 1747 
Q 288 2556 703 3070 
Q 1119 3584 1766 3584 
Q 2128 3584 2408 3439 
Q 2688 3294 2919 2988 
z
M 2181 722 
Q 2541 722 2730 984 
Q 2919 1247 2919 1747 
Q 2919 2247 2730 2509 
Q 2541 2772 2181 2772 
Q 1825 2772 1636 2509 
Q 1447 2247 1447 1747 
Q 1447 1247 1636 984 
Q 1825 722 2181 722 
z
" transform="scale(0.015625)"/>
      <path id="DejaVuSans-Bold-44" d="M 2106 1575 
Q 1756 1575 1579 1456 
Q 1403 1338 1403 1106 
Q 1403 894 1545 773 
Q 1688 653 1941 653 
Q 2256 653 2472 879 
Q 2688 1106 2688 1447 
L 2688 1575 
L 2106 1575 
z
M 3816 1997 
L 3816 0 
L 2688 0 
L 2688 519 
Q 2463 200 2181 54 
Q 1900 -91 1497 -91 
Q 953 -91 614 226 
Q 275 544 275 1050 
Q 275 1666 698 1953 
Q 1122 2241 2028 2241 
L 2688 2241 
L 2688 2328 
Q 2688 2594 2478 2717 
Q 2269 2841 1825 2841 
Q 1466 2841 1156 2769 
Q 847 2697 581 2553 
L 581 3406 
Q 941 3494 1303 3539 
Q 1666 3584 2028 3584 
Q 2975 3584 3395 3211 
Q 3816 2838 3816 1997 
z
" transform="scale(0.015625)"/>
      <path id="DejaVuSans-Bold-5c" d="M 78 3500 
L 1197 3500 
L 2138 1125 
L 2938 3500 
L 4056 3500 
L 2584 -331 
Q 2363 -916 2067 -1148 
Q 1772 -1381 1288 -1381 
L 641 -1381 
L 641 -647 
L 991 -647 
Q 1275 -647 1404 -556 
Q 1534 -466 1606 -231 
L 1638 -134 
L 78 3500 
z
" transform="scale(0.015625)"/>
     </defs>
     <use xlink:href="#DejaVuSans-Bold-14"/>
     <use xlink:href="#DejaVuSans-Bold-f" transform="translate(69.578125 0)"/>
     <use xlink:href="#DejaVuSans-Bold-13" transform="translate(107.5625 0)"/>
     <use xlink:href="#DejaVuSans-Bold-1c" transform="translate(177.140625 0)"/>
     <use xlink:href="#DejaVuSans-Bold-13" transform="translate(246.71875 0)"/>
     <use xlink:href="#DejaVuSans-Bold-12" transform="translate(316.296875 0)"/>
     <use xlink:href="#DejaVuSans-Bold-47" transform="translate(352.828125 0)"/>
     <use xlink:href="#DejaVuSans-Bold-44" transform="translate(424.40625 0)"/>
     <use xlink:href="#DejaVuSans-Bold-5c" transform="translate(488.8125 0)"/>
    </g>
   </g>
   <g id="line2d_19">
    <defs>
     <path id="m312f50a12f" d="M 0 4 
C 1.060812 4 2.078319 3.578535 2.828427 2.828427 
C 3.578535 2.078319 4 1.060812 4 0 
C 4 -1.060812 3.578535 -2.078319 2.828427 -2.828427 
C 2.078319 -3.578535 1.060812 -4 0 -4 
C -1.060812 -4 -2.078319 -3.578535 -2.828427 -2.828427 
C -3.578535 -2.078319 -4 -1.060812 -4 0 
C -4 1.060812 -3.578535 2.078319 -2.828427 2.828427 
C -2.078319 3.578535 -1.060812 4 0 4 
z
" style="stroke: #fcfcfb; stroke-width: 2"/>
    </defs>
    <g>
     <use xlink:href="#m312f50a12f" x="493.196488" y="197.334585" style="fill: #2a78d6; stroke: #fcfcfb; stroke-width: 2"/>
    </g>
   </g>
   <g id="legend_1">
    <g id="line2d_20">
     <path d="M 59.94 69.388594 
L 66.69 69.388594 
L 73.44 69.388594 
" style="fill: none; stroke: #2a78d6; stroke-width: 2; stroke-linecap: round"/>
    </g>
    <g id="text_14">
     <!-- 30-day average -->
     <g style="fill: #52514e" transform="translate(80.64 72.538594) scale(0.09 -0.09)">
      <defs>
       <path id="DejaVuSans-10" d="M 313 2009 
L 1997 2009 
L 1997 1497 
L 313 1497 
L 313 2009 
z
" transform="scale(0.015625)"/>
       <path id="DejaVuSans-47" d="M 2906 2969 
L 2906 4863 
L 3481 4863 
L 3481 0 
L 2906 0 
L 2906 525 
Q 2725 213 2448 61 
Q 2172 -91 1784 -91 
Q 1150 -91 751 415 
Q 353 922 353 1747 
Q 353 2572 751 3078 
Q 1150 3584 1784 3584 
Q 2172 3584 2448 3432 
Q 2725 3281 2906 2969 
z
M 947 1747 
Q 947 1113 1208 752 
Q 1469 391 1925 391 
Q 2381 391 2643 752 
Q 2906 1113 2906 1747 
Q 2906 2381 2643 2742 
Q 2381 3103 1925 3103 
Q 1469 3103 1208 2742 
Q 947 2381 947 1747 
z
" transform="scale(0.015625)"/>
       <path id="DejaVuSans-3" transform="scale(0.015625)"/>
       <path id="DejaVuSans-59" d="M 191 3500 
L 800 3500 
L 1894 563 
L 2988 3500 
L 3597 3500 
L 2284 0 
L 1503 0 
L 191 3500 
z
" transform="scale(0.015625)"/>
      </defs>
      <use xlink:href="#DejaVuSans-16"/>
      <use xlink:href="#DejaVuSans-13" transform="translate(63.625 0)"/>
      <use xlink:href="#DejaVuSans-10" transform="translate(127.25 0)"/>
      <use xlink:href="#DejaVuSans-47" transform="translate(163.328125 0)"/>
      <use xlink:href="#DejaVuSans-44" transform="translate(226.8125 0)"/>
      <use xlink:href="#DejaVuSans-5c" transform="translate(288.09375 0)"/>
      <use xlink:href="#DejaVuSans-3" transform="translate(347.28125 0)"/>
      <use xlink:href="#DejaVuSans-44" transform="translate(379.0625 0)"/>
      <use xlink:href="#DejaVuSans-59" transform="translate(440.34375 0)"/>
      <use xlink:href="#DejaVuSans-48" transform="translate(499.53125 0)"/>
      <use xlink:href="#DejaVuSans-55" transform="translate(561.0625 0)"/>
      <use xlink:href="#DejaVuSans-44" transform="translate(602.171875 0)"/>
      <use xlink:href="#DejaVuSans-4a" transform="translate(663.453125 0)"/>
      <use xlink:href="#DejaVuSans-48" transform="translate(726.9375 0)"/>
     </g>
    </g>
    <g id="patch_208">
     <path d="M 59.94 86.039297 
L 73.44 86.039297 
L 73.44 79.739297 
L 59.94 79.739297 
z
" style="fill: #9ec5f4"/>
    </g>
    <g id="text_15">
     <!-- Daily -->
     <g style="fill: #52514e" transform="translate(80.64 86.039297) scale(0.09 -0.09)">
      <defs>
       <path id="DejaVuSans-27" d="M 1259 4147 
L 1259 519 
L 2022 519 
Q 2988 519 3436 956 
Q 3884 1394 3884 2338 
Q 3884 3275 3436 3711 
Q 2988 4147 2022 4147 
L 1259 4147 
z
M 628 4666 
L 1925 4666 
Q 3281 4666 3915 4102 
Q 4550 3538 4550 2338 
Q 4550 1131 3912 565 
Q 3275 0 1925 0 
L 628 0 
L 628 4666 
z
" transform="scale(0.015625)"/>
       <path id="DejaVuSans-4c" d="M 603 3500 
L 1178 3500 
L 1178 0 
L 603 0 
L 603 3500 
z
M 603 4863 
L 1178 4863 
L 1178 4134 
L 603 4134 
L 603 4863 
z
" transform="scale(0.015625)"/>
      </defs>
      <use xlink:href="#DejaVuSans-27"/>
      <use xlink:href="#DejaVuSans-44" transform="translate(77 0)"/>
      <use xlink:href="#DejaVuSans-4c" transform="translate(138.28125 0)"/>
      <use xlink:href="#DejaVuSans-4f" transform="translate(166.0625 0)"/>
      <use xlink:href="#DejaVuSans-5c" transform="translate(193.84375 0)"/>
     </g>
    </g>
   </g>
  </g>
  <g id="text_16">
   <!-- gptme PyPI downloads -->
   <g style="fill: #0b0b0b" transform="translate(11.52 20.16) scale(0.14 -0.14)">
    <defs>
     <path id="DejaVuSans-Bold-4a" d="M 2919 594 
Q 2688 288 2409 144 
Q 2131 0 1766 0 
Q 1125 0 706 504 
Q 288 1009 288 1791 
Q 288 2575 706 3076 
Q 1125 3578 1766 3578 
Q 2131 3578 2409 3434 
Q 2688 3291 2919 2981 
L 2919 3500 
L 4044 3500 
L 4044 353 
Q 4044 -491 3511 -936 
Q 2978 -1381 1966 -1381 
Q 1638 -1381 1331 -1331 
Q 1025 -1281 716 -1178 
L 716 -306 
Q 1009 -475 1290 -558 
Q 1572 -641 1856 -641 
Q 2406 -641 2662 -400 
Q 2919 -159 2919 353 
L 2919 594 
z
M 2181 2772 
Q 1834 2772 1640 2515 
Q 1447 2259 1447 1791 
Q 1447 1309 1634 1061 
Q 1822 813 2181 813 
Q 2531 813 2725 1069 
Q 2919 1325 2919 1791 
Q 2919 2259 2725 2515 
Q 2531 2772 2181 2772 
z
" transform="scale(0.015625)"/>
     <path id="DejaVuSans-Bold-53" d="M 1656 506 
L 1656 -1331 
L 538 -1331 
L 538 3500 
L 1656 3500 
L 1656 2988 
Q 1888 3294 2169 3439 
Q 2450 3584 2816 3584 
Q 3463 3584 3878 3070 
Q 4294 2556 4294 1747 
Q 4294 938 3878 423 
Q 3463 -91 2816 -91 
Q 2450 -91 2169 54 
Q 1888 200 1656 506 
z
M 2400 2772 
Q 2041 2772 1848 2508 
Q 1656 2244 1656 1747 
Q 1656 1250 1848 986 
Q 2041 722 2400 722 
Q 2759 722 2948 984 
Q 3138 1247 3138 1747 
Q 3138 2247 2948 2509 
Q 2759 2772 2400 2772 
z
" transform="scale(0.015625)"/>
     <path id="DejaVuSans-Bold-57" d="M 1759 4494 
L 1759 3500 
L 2913 3500 
L 2913 2700 
L 1759 2700 
L 1759 1216 
Q 1759 972 1856 886 
Q 1953 800 2241 800 
L 2816 800 
L 2816 0 
L 1856 0 
Q 1194 0 917 276 
Q 641 553 641 1216 
L 641 2700 
L 84 2700 
L 84 3500 
L 641 3500 
L 641 4494 
L 1759 4494 
z
" transform="scale(0.015625)"/>
     <path id="DejaVuSans-Bold-50" d="M 3781 2919 
Q 3994 3244 4286 3414 
Q 4578 3584 4928 3584 
Q 5531 3584 5847 3212 
Q 6163 2841 6163 2131 
L 6163 0 
L 5038 0 
L 5038 1825 
Q 5041 1866 5042 1909 
Q 5044 1953 5044 2034 
Q 5044 2406 4934 2573 
Q 4825 2741 4581 2741 
Q 4263 2741 4089 2478 
Q 3916 2216 3909 1719 
L 3909 0 
L 2784 0 
L 2784 1825 
Q 2784 2406 2684 2573 
Q 2584 2741 2328 2741 
Q 2006 2741 1831 2477 
Q 1656 2213 1656 1722 
L 1656 0 
L 531 0 
L 531 3500 
L 1656 3500 
L 1656 2988 
Q 1863 3284 2130 3434 
Q 2397 3584 2719 3584 
Q 3081 3584 3359 3409 
Q 3638 3234 3781 2919 
z
" transform="scale(0.015625)"/>
     <path id="DejaVuSans-Bold-48" d="M 4031 1759 
L 4031 1441 
L 1416 1441 
Q 1456 1047 1700 850 
Q 1944 653 2381 653 
Q 2734 653 3104 758 
Q 3475 863 3866 1075 
L 3866 213 
Q 3469 63 3072 -14 
Q 2675 -91 2278 -91 
Q 1328 -91 801 392 
Q 275 875 275 1747 
Q 275 2603 792 3093 
Q 1309 3584 2216 3584 
Q 3041 3584 3536 3087 
Q 4031 2591 4031 1759 
z
M 2881 2131 
Q 2881 2450 2695 2645 
Q 2509 2841 2209 2841 
Q 1884 2841 1681 2658 
Q 1478 2475 1428 2131 
L 2881 2131 
z
" transform="scale(0.015625)"/>
     <path id="DejaVuSans-Bold-3" transform="scale(0.015625)"/>
     <path id="DejaVuSans-Bold-33" d="M 588 4666 
L 2584 4666 
Q 3475 4666 3951 4270 
Q 4428 3875 4428 3144 
Q 4428 2409 3951 2014 
Q 3475 1619 2584 1619 
L 1791 1619 
L 1791 0 
L 588 0 
L 588 4666 
z
M 1791 3794 
L 1791 2491 
L 2456 2491 
Q 2806 2491 2997 2661 
Q 3188 2831 3188 3144 
Q 3188 3456 2997 3625 
Q 2806 3794 2456 3794 
L 1791 3794 
z
" transform="scale(0.015625)"/>
     <path id="DejaVuSans-Bold-2c" d="M 588 4666 
L 1791 4666 
L 1791 0 
L 588 0 
L 588 4666 
z
" transform="scale(0.015625)"/>
     <path id="DejaVuSans-Bold-52" d="M 2203 2784 
Q 1831 2784 1636 2517 
Q 1441 2250 1441 1747 
Q 1441 1244 1636 976 
Q 1831 709 2203 709 
Q 2569 709 2762 976 
Q 2956 1244 2956 1747 
Q 2956 2250 2762 2517 
Q 2569 2784 2203 2784 
z
M 2203 3584 
Q 3106 3584 3614 3096 
Q 4122 2609 4122 1747 
Q 4122 884 3614 396 
Q 3106 -91 2203 -91 
Q 1297 -91 786 396 
Q 275 884 275 1747 
Q 275 2609 786 3096 
Q 1297 3584 2203 3584 
z
" transform="scale(0.015625)"/>
     <path id="DejaVuSans-Bold-5a" d="M 225 3500 
L 1313 3500 
L 1900 1088 
L 2491 3500 
L 3425 3500 
L 4013 1113 
L 4603 3500 
L 5691 3500 
L 4769 0 
L 3547 0 
L 2956 2406 
L 2369 0 
L 1147 0 
L 225 3500 
z
" transform="scale(0.015625)"/>
     <path id="DejaVuSans-Bold-51" d="M 4056 2131 
L 4056 0 
L 2931 0 
L 2931 347 
L 2931 1631 
Q 2931 2084 2911 2256 
Q 2891 2428 2841 2509 
Q 2775 2619 2662 2680 
Q 2550 2741 2406 2741 
Q 2056 2741 1856 2470 
Q 1656 2200 1656 1722 
L 1656 0 
L 538 0 
L 538 3500 
L 1656 3500 
L 1656 2988 
Q 1909 3294 2193 3439 
Q 2478 3584 2822 3584 
Q 3428 3584 3742 3212 
Q 4056 2841 4056 2131 
z
" transform="scale(0.015625)"/>
     <path id="DejaVuSans-Bold-4f" d="M 538 4863 
L 1656 4863 
L 1656 0 
L 538 0 
L 538 4863 
z
" transform="scale(0.015625)"/>
     <path id="DejaVuSans-Bold-56" d="M 3272 3391 
L 3272 2541 
Q 2913 2691 2578 2766 
Q 2244 2841 1947 2841 
Q 1628 2841 1473 2761 
Q 1319 2681 1319 2516 
Q 1319 2381 1436 2309 
Q 1553 2238 1856 2203 
L 2053 2175 
Q 2913 2066 3209 1816 
Q 3506 1566 3506 1031 
Q 3506 472 3093 190 
Q 2681 -91 1863 -91 
Q 1516 -91 1145 -36 
Q 775 19 384 128 
L 384 978 
Q 719 816 1070 734 
Q 1422 653 1784 653 
Q 2113 653 2278 743 
Q 2444 834 2444 1013 
Q 2444 1163 2330 1236 
Q 2216 1309 1875 1350 
L 1678 1375 
Q 931 1469 631 1722 
Q 331 1975 331 2491 
Q 331 3047 712 3315 
Q 1094 3584 1881 3584 
Q 2191 3584 2531 3537 
Q 2872 3491 3272 3391 
z
" transform="scale(0.015625)"/>
    </defs>
    <use xlink:href="#DejaVuSans-Bold-4a"/>
    <use xlink:href="#DejaVuSans-Bold-53" transform="translate(71.578125 0)"/>
    <use xlink:href="#DejaVuSans-Bold-57" transform="translate(143.15625 0)"/>
    <use xlink:href="#DejaVuSans-Bold-50" transform="translate(190.953125 0)"/>
    <use xlink:href="#DejaVuSans-Bold-48" transform="translate(295.15625 0)"/>
    <use xlink:href="#DejaVuSans-Bold-3" transform="translate(362.984375 0)"/>
    <use xlink:href="#DejaVuSans-Bold-33" transform="translate(397.796875 0)"/>
    <use xlink:href="#DejaVuSans-Bold-5c" transform="translate(472.953125 0)"/>
    <use xlink:href="#DejaVuSans-Bold-33" transform="translate(538.140625 0)"/>
    <use xlink:href="#DejaVuSans-Bold-2c" transform="translate(611.4375 0)"/>
    <use xlink:href="#DejaVuSans-Bold-3" transform="translate(648.640625 0)"/>
    <use xlink:href="#DejaVuSans-Bold-47" transform="translate(683.453125 0)"/>
    <use xlink:href="#DejaVuSans-Bold-52" transform="translate(755.03125 0)"/>
    <use xlink:href="#DejaVuSans-Bold-5a" transform="translate(823.734375 0)"/>
    <use xlink:href="#DejaVuSans-Bold-51" transform="translate(916.125 0)"/>
    <use xlink:href="#DejaVuSans-Bold-4f" transform="translate(987.3125 0)"/>
    <use xlink:href="#DejaVuSans-Bold-52" transform="translate(1021.59375 0)"/>
    <use xlink:href="#DejaVuSans-Bold-44" transform="translate(1090.296875 0)"/>
    <use xlink:href="#DejaVuSans-Bold-47" transform="translate(1157.78125 0)"/>
    <use xlink:href="#DejaVuSans-Bold-56" transform="translate(1229.359375 0)"/>
   </g>
  </g>
  <g id="text_17">
   <!-- Daily downloads of the gptme package (pypistats, without mirrors), 2026-03-17 to 2026-10-06 -->
   <g style="fill: #52514e" transform="translate(11.52 38.88) scale(0.095 -0.095)">
    <defs>
     <path id="DejaVuSans-52" d="M 1959 3097 
Q 1497 3097 1228 2736 
Q 959 2375 959 1747 
Q 959 1119 1226 758 
Q 1494 397 1959 397 
Q 2419 397 2687 759 
Q 2956 1122 2956 1747 
Q 2956 2369 2687 2733 
Q 2419 3097 1959 3097 
z
M 1959 3584 
Q 2709 3584 3137 3096 
Q 3566 2609 3566 1747 
Q 3566 888 3137 398 
Q 2709 -91 1959 -91 
Q 1206 -91 779 398 
Q 353 888 353 1747 
Q 353 2609 779 3096 
Q 1206 3584 1959 3584 
z
" transform="scale(0.015625)"/>
     <path id="DejaVuSans-5a" d="M 269 3500 
L 844 3500 
L 1563 769 
L 2278 3500 
L 2956 3500 
L 3675 769 
L 4391 3500 
L 4966 3500 
L 4050 0 
L 3372 0 
L 2619 2869 
L 1863 0 
L 1184 0 
L 269 3500 
z
" transform="scale(0.015625)"/>
     <path id="DejaVuSans-56" d="M 2834 3397 
L 2834 2853 
Q 2591 2978 2328 3040 
Q 2066 3103 1784 3103 
Q 1356 3103 1142 2972 
Q 928 2841 928 2578 
Q 928 2378 1081 2264 
Q 1234 2150 1697 2047 
L 1894 2003 
Q 2506 1872 2764 1633 
Q 3022 1394 3022 966 
Q 3022 478 2636 193 
Q 2250 -91 1575 -91 
Q 1294 -91 989 -36 
Q 684 19 347 128 
L 347 722 
Q 666 556 975 473 
Q 1284 391 1588 391 
Q 1994 391 2212 530 
Q 2431 669 2431 922 
Q 2431 1156 2273 1281 
Q 2116 1406 1581 1522 
L 1381 1569 
Q 847 1681 609 1914 
Q 372 2147 372 2553 
Q 372 3047 722 3315 
Q 1072 3584 1716 3584 
Q 2034 3584 2315 3537 
Q 2597 3491 2834 3397 
z
" transform="scale(0.015625)"/>
     <path id="DejaVuSans-49" d="M 2375 4863 
L 2375 4384 
L 1825 4384 
Q 1516 4384 1395 4259 
Q 1275 4134 1275 3809 
L 1275 3500 
L 2222 3500 
L 2222 3053 
L 1275 3053 
L 1275 0 
L 697 0 
L 697 3053 
L 147 3053 
L 147 3500 
L 697 3500 
L 697 3744 
Q 697 4328 969 4595 
Q 1241 4863 1831 4863 
L 2375 4863 
z
" transform="scale(0.015625)"/>
     <path id="DejaVuSans-4b" d="M 3513 2113 
L 3513 0 
L 2938 0 
L 2938 2094 
Q 2938 2591 2744 2837 
Q 2550 3084 2163 3084 
Q 1697 3084 1428 2787 
Q 1159 2491 1159 1978 
L 1159 0 
L 581 0 
L 581 4863 
L 1159 4863 
L 1159 2956 
Q 1366 3272 1645 3428 
Q 1925 3584 2291 3584 
Q 2894 3584 3203 3211 
Q 3513 2838 3513 2113 
z
" transform="scale(0.015625)"/>
     <path id="DejaVuSans-50" d="M 3328 2828 
Q 3544 3216 3844 3400 
Q 4144 3584 4550 3584 
Q 5097 3584 5394 3201 
Q 5691 2819 5691 2113 
L 5691 0 
L 5113 0 
L 5113 2094 
Q 5113 2597 4934 2840 
Q 4756 3084 4391 3084 
Q 3944 3084 3684 2787 
Q 3425 2491 3425 1978 
L 3425 0 
L 2847 0 
L 2847 2094 
Q 2847 2600 2669 2842 
Q 2491 3084 2119 3084 
Q 1678 3084 1418 2786 
Q 1159 2488 1159 1978 
L 1159 0 
L 581 0 
L 581 3500 
L 1159 3500 
L 1159 2956 
Q 1356 3278 1631 3431 
Q 1906 3584 2284 3584 
Q 2666 3584 2933 3390 
Q 3200 3197 3328 2828 
z
" transform="scale(0.015625)"/>
     <path id="DejaVuSans-4e" d="M 581 4863 
L 1159 4863 
L 1159 1991 
L 2875 3500 
L 3609 3500 
L 1753 1863 
L 3688 0 
L 2938 0 
L 1159 1709 
L 1159 0 
L 581 0 
L 581 4863 
z
" transform="scale(0.015625)"/>
     <path id="DejaVuSans-b" d="M 1984 4856 
Q 1566 4138 1362 3434 
Q 1159 2731 1159 2009 
Q 1159 1288 1364 580 
Q 1569 -128 1984 -844 
L 1484 -844 
Q 1016 -109 783 600 
Q 550 1309 550 2009 
Q 550 2706 781 3412 
Q 1013 4119 1484 4856 
L 1984 4856 
z
" transform="scale(0.015625)"/>
     <path id="DejaVuSans-c" d="M 513 4856 
L 1013 4856 
Q 1481 4119 1714 3412 
Q 1947 2706 1947 2009 
Q 1947 1309 1714 600 
Q 1481 -109 1013 -844 
L 513 -844 
Q 928 -128 1133 580 
Q 1338 1288 1338 2009 
Q 1338 2731 1133 3434 
Q 928 4138 513 4856 
z
" transform="scale(0.015625)"/>
     <path id="DejaVuSans-1a" d="M 525 4666 
L 3525 4666 
L 3525 4397 
L 1831 0 
L 1172 0 
L 2766 4134 
L 525 4134 
L 525 4666 
z
" transform="scale(0.015625)"/>
    </defs>
    <use xlink:href="#DejaVuSans-27"/>
    <use xlink:href="#DejaVuSans-44" transform="translate(77 0)"/>
    <use xlink:href="#DejaVuSans-4c" transform="translate(138.28125 0)"/>
    <use xlink:href="#DejaVuSans-4f" transform="translate(166.0625 0)"/>
    <use xlink:href="#DejaVuSans-5c" transform="translate(193.84375 0)"/>
    <use xlink:href="#DejaVuSans-3" transform="translate(253.03125 0)"/>
    <use xlink:href="#DejaVuSans-47" transform="translate(284.8125 0)"/>
    <use xlink:href="#DejaVuSans-52" transform="translate(348.296875 0)"/>
    <use xlink:href="#DejaVuSans-5a" transform="translate(409.484375 0)"/>
    <use xlink:href="#DejaVuSans-51" transform="translate(491.265625 0)"/>
    <use xlink:href="#DejaVuSans-4f" transform="translate(554.640625 0)"/>
    <use xlink:href="#DejaVuSans-52" transform="translate(582.421875 0)"/>
    <use xlink:href="#DejaVuSans-44" transform="translate(643.609375 0)"/>
    <use xlink:href="#DejaVuSans-47" transform="translate(704.890625 0)"/>
    <use xlink:href="#DejaVuSans-56" transform="translate(768.375 0)"/>
    <use xlink:href="#DejaVuSans-3" transform="translate(820.46875 0)"/>
    <use xlink:href="#DejaVuSans-52" transform="translate(852.25 0)"/>
    <use xlink:href="#DejaVuSans-49" transform="translate(913.4375 0)"/>
    <use xlink:href="#DejaVuSans-3" transform="translate(948.640625 0)"/>
    <use xlink:href="#DejaVuSans-57" transform="translate(980.421875 0)"/>
    <use xlink:href="#DejaVuSans-4b" transform="translate(1019.625 0)"/>
    <use xlink:href="#DejaVuSans-48" transform="translate(1083 0)"/>
    <use xlink:href="#DejaVuSans-3" transform="translate(1144.53125 0)"/>
    <use xlink:href="#DejaVuSans-4a" transform="translate(1176.3125 0)"/>
    <use xlink:href="#DejaVuSans-53" transform="translate(1239.796875 0)"/>
    <use xlink:href="#DejaVuSans-57" transform="translate(1303.28125 0)"/>
    <use xlink:href="#DejaVuSans-50" transform="translate(1342.484375 0)"/>
    <use xlink:href="#DejaVuSans-48" transform="translate(1439.890625 0)"/>
    <use xlink:href="#DejaVuSans-3" transform="translate(1501.421875 0)"/>
    <use xlink:href="#DejaVuSans-53" transform="translate(1533.203125 0)"/>
    <use xlink:href="#DejaVuSans-44" transform="translate(1596.6875 0)"/>
    <use xlink:href="#DejaVuSans-46" transform="translate(1657.96875 0)"/>
    <use xlink:href="#DejaVuSans-4e" transform="translate(1712.953125 0)"/>
    <use xlink:href="#DejaVuSans-44" transform="translate(1769.109375 0)"/>
    <use xlink:href="#DejaVuSans-4a" transform="translate(1830.390625 0)"/>
    <use xlink:href="#DejaVuSans-48" transform="translate(1893.875 0)"/>
    <use xlink:href="#DejaVuSans-3" transform="translate(1955.40625 0)"/>
    <use xlink:href="#DejaVuSans-b" transform="translate(1987.1875 0)"/>
    <use xlink:href="#DejaVuSans-53" transform="translate(2026.203125 0)"/>
    <use xlink:href="#DejaVuSans-5c" transform="translate(2089.6875 0)"/>
    <use xlink:href="#DejaVuSans-53" transform="translate(2148.875 0)"/>
    <use xlink:href="#DejaVuSans-4c" transform="translate(2212.359375 0)"/>
    <use xlink:href="#DejaVuSans-56" transform="translate(2240.140625 0)"/>
    <use xlink:href="#DejaVuSans-57" transform="translate(2292.234375 0)"/>
    <use xlink:href="#DejaVuSans-44" transform="translate(2331.4375 0)"/>
    <use xlink:href="#DejaVuSans-57" transform="translate(2392.71875 0)"/>
    <use xlink:href="#DejaVuSans-56" transform="translate(2431.921875 0)"/>
    <use xlink:href="#DejaVuSans-f" transform="translate(2484.015625 0)"/>
    <use xlink:href="#DejaVuSans-3" transform="translate(2515.796875 0)"/>
    <use xlink:href="#DejaVuSans-5a" transform="translate(2547.578125 0)"/>
    <use xlink:href="#DejaVuSans-4c" transform="translate(2629.359375 0)"/>
    <use xlink:href="#DejaVuSans-57" transform="translate(2657.140625 0)"/>
    <use xlink:href="#DejaVuSans-4b" transform="translate(2696.34375 0)"/>
    <use xlink:href="#DejaVuSans-52" transform="translate(2759.71875 0)"/>
    <use xlink:href="#DejaVuSans-58" transform="translate(2820.90625 0)"/>
    <use xlink:href="#DejaVuSans-57" transform="translate(2884.28125 0)"/>
    <use xlink:href="#DejaVuSans-3" transform="translate(2923.484375 0)"/>
    <use xlink:href="#DejaVuSans-50" transform="translate(2955.265625 0)"/>
    <use xlink:href="#DejaVuSans-4c" transform="translate(3052.671875 0)"/>
    <use xlink:href="#DejaVuSans-55" transform="translate(3080.453125 0)"/>
    <use xlink:href="#DejaVuSans-55" transform="translate(3119.8125 0)"/>
    <use xlink:href="#DejaVuSans-52" transform="translate(3158.71875 0)"/>
    <use xlink:href="#DejaVuSans-55" transform="translate(3219.90625 0)"/>
    <use xlink:href="#DejaVuSans-56" transform="translate(3261.015625 0)"/>
    <use xlink:href="#DejaVuSans-c" transform="translate(3313.109375 0)"/>
    <use xlink:href="#DejaVuSans-f" transform="translate(3352.125 0)"/>
    <use xlink:href="#DejaVuSans-3" transform="translate(3383.90625 0)"/>
    <use xlink:href="#DejaVuSans-15" transform="translate(3415.6875 0)"/>
    <use xlink:href="#DejaVuSans-13" transform="translate(3479.3125 0)"/>
    <use xlink:href="#DejaVuSans-15" transform="translate(3542.9375 0)"/>
    <use xlink:href="#DejaVuSans-19" transform="translate(3606.5625 0)"/>
    <use xlink:href="#DejaVuSans-10" transform="translate(3670.1875 0)"/>
    <use xlink:href="#DejaVuSans-13" transform="translate(3706.265625 0)"/>
    <use xlink:href="#DejaVuSans-16" transform="translate(3769.890625 0)"/>
    <use xlink:href="#DejaVuSans-10" transform="translate(3833.515625 0)"/>
    <use xlink:href="#DejaVuSans-14" transform="translate(3869.59375 0)"/>
    <use xlink:href="#DejaVuSans-1a" transform="translate(3933.21875 0)"/>
    <use xlink:href="#DejaVuSans-3" transform="translate(3996.84375 0)"/>
    <use xlink:href="#DejaVuSans-57" transform="translate(4028.625 0)"/>
    <use xlink:href="#DejaVuSans-52" transform="translate(4067.828125 0)"/>
    <use xlink:href="#DejaVuSans-3" transform="translate(4129.015625 0)"/>
    <use xlink:href="#DejaVuSans-15" transform="translate(4160.796875 0)"/>
    <use xlink:href="#DejaVuSans-13" transform="translate(4224.421875 0)"/>
    <use xlink:href="#DejaVuSans-15" transform="translate(4288.046875 0)"/>
    <use xlink:href="#DejaVuSans-19" transform="translate(4351.671875 0)"/>
    <use xlink:href="#DejaVuSans-10" transform="translate(4415.296875 0)"/>
    <use xlink:href="#DejaVuSans-14" transform="translate(4451.375 0)"/>
    <use xlink:href="#DejaVuSans-13" transform="translate(4515 0)"/>
    <use xlink:href="#DejaVuSans-10" transform="translate(4578.625 0)"/>
    <use xlink:href="#DejaVuSans-13" transform="translate(4614.703125 0)"/>
    <use xlink:href="#DejaVuSans-19" transform="translate(4678.328125 0)"/>
   </g>
  </g>
 </g>
 <defs>
  <clipPath id="p60cb94f407">
   <rect x="51.84" y="57.6" width="443.52" height="195.84"/>
  </clipPath>
 </defs>
</svg>
